<svg xmlns="http://www.w3.org/2000/svg" viewBox="40 25 101.00001525878906 79.43138885498047"><g>
            <g>
    
    <g>
    <rect fill="transparent" transform="matrix(1 0 0 1 40 80)" x="0" y="-55" width="100" height="55.8871955871582" stroke="none" vector-effect="non-scaling-stroke"></rect>
    <g transform="matrix(1 0 0 1 40 80)">
            <g>
    <rect fill="transparent" transform="matrix(1 0 0 1 0 0)" x="0" y="0" width="100" height="0.8871930241584778" stroke="none" vector-effect="non-scaling-stroke"></rect>
    <g transform="matrix(1 0 0 1 0 0)">
    
    <path fill="#33A6FA" d="M0 0V0.443597H18.5113V0.887193H81.4887V0.443597H100V0H0Z" fill-opacity="1"></path>
</g>
</g><g>
    <rect fill="transparent" transform="matrix(0.40046972420504107 0 0 0.4004697242050411 29.97062806516638 -55.02102245596787)" x="0.05719304084777832" y="0.05249446630477905" width="99.91502380371094" height="99.8827133178711" stroke="none" vector-effect="non-scaling-stroke"></rect>
    <g transform="matrix(0.40046972420504107 0 0 0.4004697242050411 29.97062806516638 -55.02102245596787)">
    
    <path fill="#33D6FA" d="M43.095.726c-1.237.718-2.2 1.573-2.796 2.474-.32.49-.336.52-.275 1.299.077.962.306 1.512 1.177 2.765.641.932.993 1.283 3.208 3.147l1.252 1.07.2-.23c.335-.397 1.771-2.337 2.397-3.254.459-.657.688-1.16 1.04-2.123.458-1.36.503-1.711.305-2.689-.122-.55-.184-.687-.611-1.054-.917-.825-1.513-1.16-2.933-1.62-.764-.244-1.482-.458-1.59-.458s-.748.29-1.374.673zM53.911.527c-1.42.489-2.047.84-2.903 1.65-.412.397-.489.504-.58 1.1-.184 1.1-.168 1.314.458 2.994.214.611.55 1.253.917 1.772.657.917 2.077 2.857 2.383 3.208l.198.23 1.253-1.07c2.2-1.849 2.551-2.2 3.208-3.147.856-1.268 1.1-1.803 1.176-2.765.061-.78.046-.81-.275-1.299-.595-.9-1.558-1.756-2.795-2.474-.627-.367-1.268-.688-1.406-.673-.152 0-.886.214-1.634.474zM33.41 2.544c-.107.045-.718.595-1.36 1.206-1.16 1.13-1.207 1.223-1.91 2.735-.213.458-.213.489-.06 1.16.106.368.274.856.412 1.086.305.504 1.894 2.092 2.49 2.459.596.367 4.201 2.23 4.232 2.185.106-.107 1.772-3.957 1.94-4.492.26-.81.458-2.444.397-3.147-.03-.29-.183-.825-.351-1.176-.26-.565-.367-.687-.84-.962-.948-.535-1.788-.81-2.95-.917-.595-.046-1.252-.122-1.45-.137-.184-.062-.443-.031-.55 0zm31.561.06c-1.467.138-2.154.337-3.208.917-.58.321-.657.397-.932 1.008-.168.367-.32.887-.351 1.177-.077.702.137 2.337.397 3.147.183.55 1.833 4.4 1.94 4.491.046.046 3.62-1.803 4.232-2.185.595-.366 2.184-1.94 2.49-2.459.137-.214.305-.718.412-1.085.183-.748.214-.61-.535-2.184-.35-.718-2.413-2.826-2.872-2.933-.137 0-.84.03-1.573.107zM49.618 6.18c-.412 1.177-.87 1.94-2.414 3.942l-1.206 1.604.565.55c.32.305.916.84 1.329 1.176.412.351 1.054.947 1.436 1.298l.672.657.687-.657c.367-.366.993-.931 1.375-1.267.398-.321.978-.856 1.33-1.177l.626-.596-1.222-1.604c-1.528-2-2.002-2.765-2.414-3.94-.183-.505-.367-.918-.397-.918s-.184.428-.367.932zm-9.731 1.16c-.153 1.268-.29 1.711-1.314 4.033-.428.963-.81 1.864-.87 2.002-.123.29-.23.213 2.321 1.573.871.458 1.757.962 1.94 1.115.214.168.367.23.398.153.046-.153.855-1.329 2.077-3.01l.993-1.374-.397-.336a54.455 54.455 0 0 0-1.451-1.207c-1.635-1.345-2.23-1.94-2.765-2.796-.856-1.39-.78-1.39-.932-.153zm19.554-.214c-.657 1.04-1.451 1.864-3.346 3.438-.764.626-1.405 1.176-1.436 1.222-.03.046.398.687.932 1.436 1.207 1.65 2.017 2.841 2.063 2.994.015.076.168.015.397-.153.183-.153 1.07-.657 1.94-1.115.87-.474 1.787-.962 2.001-1.1l.428-.229-.504-1.161c-.275-.626-.642-1.482-.825-1.848-.504-1.1-.84-2.216-.978-3.346l-.137-1.039-.535.901zm-34.861.031c-.657.107-1.238.183-1.268.183-.107.016-1.68 2.383-1.849 2.796-.213.52-.534 1.833-.534 2.23 0 .428.55 1.452 1.023 1.88.84.794 2.704 1.74 3.988 2.046.305.077 1.206.306 2 .505.81.213 1.452.381 1.467.366.016-.015.214-1.008.459-2.23.366-1.864.443-2.383.427-3.315-.015-1.635-.244-2.551-.81-3.392-.503-.763-.565-.794-1.848-1.069-1.07-.23-1.466-.23-3.055 0zm47.754 0c-1.207.275-1.283.32-1.787 1.07-.565.84-.78 1.756-.81 3.39-.015.933.061 1.452.428 3.316.244 1.207.443 2.215.458 2.23.016.015.657-.153 1.467-.366a47.726 47.726 0 0 1 2.001-.505 9.484 9.484 0 0 0 2.81-1.191c1.086-.688 1.437-1.008 1.88-1.803.412-.733.412-1.008.03-2.413-.183-.703-.381-1.07-1.115-2.185-.779-1.176-.916-1.344-1.207-1.39-1.16-.184-2.535-.367-2.902-.352-.245.016-.81.107-1.253.199zM30.553 9.693c0 .076.046.611.107 1.192.137 1.237.061 1.863-.458 4.384-.199 1.008-.352 1.879-.321 1.955.015.077.84.336 1.787.596.963.275 2.093.596 2.536.733.443.138.81.245.81.214.015-.015.168-.397.336-.84s.626-1.543 1.008-2.46l.703-1.65-.29-.183c-.168-.091-.978-.52-1.818-.947-2.002-1.008-2.552-1.39-3.545-2.352-.488-.428-.855-.718-.855-.642zm38.13.642c-.916.916-1.62 1.39-3.575 2.383-.84.427-1.65.855-1.817.947l-.29.183.702 1.65c.382.917.84 2.017 1.008 2.46s.321.81.336.84c.016.015.367-.077.81-.214a109.38 109.38 0 0 1 2.536-.733c.947-.26 1.772-.535 1.787-.596.03-.077-.122-.947-.32-1.956-.535-2.581-.566-3.04-.459-4.43.061-.657.107-1.207.077-1.222-.031-.046-.382.275-.795.688zm-23.556 2.658c-.321.458-.856 1.176-1.176 1.634-.688.917-1.299 1.849-1.238 1.91.015.015.535.351 1.146.748.61.398 1.451.978 1.864 1.33.427.336.794.595.81.595.03 0 .32-.336.64-.733a31.754 31.754 0 0 1 1.559-1.726l.978-1.009-.78-.748c-.87-.84-3.009-2.735-3.131-2.796-.046-.015-.336.336-.672.795zm7.913.214c-.626.565-1.512 1.36-1.94 1.772l-.78.748.979 1.008c.534.55 1.237 1.33 1.558 1.727.32.397.61.733.641.733.016 0 .398-.275.81-.596a36.422 36.422 0 0 1 1.864-1.329c.61-.397 1.13-.718 1.145-.748.046-.046-.55-.978-1.237-1.91-.336-.458-.855-1.176-1.176-1.635-.321-.443-.611-.81-.657-.81-.03.016-.58.49-1.207 1.04zm-35.701.122c-.52.137-2.826 1.008-2.903 1.084-.107.107-.947 2.445-1.1 3.01-.107.428-.137.901-.107 1.589l.046.977.443.535c.596.718 1.13 1.039 2.597 1.512l1.253.413 2.505.091c1.375.046 2.506.077 2.536.062.016-.031-.015-1.161-.06-2.536l-.093-2.506-.412-1.252c-.504-1.559-.718-1.91-1.451-2.536l-.58-.504-1.07-.03c-.718-.047-1.253 0-1.604.09zm62.756-.061c-.367.137-1.299 1.054-1.528 1.497-.137.26-.397.993-.611 1.619-.367 1.161-.367 1.161-.458 3.651-.046 1.375-.077 2.505-.061 2.536.03.015 1.16-.015 2.535-.061l2.506-.092 1.253-.412c1.481-.474 2-.78 2.612-1.513l.458-.534-.015-1.253c0-1.36.015-1.268-.81-3.391l-.351-.917-.917-.351c-2.032-.78-2.062-.795-3.284-.825-.642-.015-1.238.015-1.33.046zM37.35 14.2c-.03.076-.275.672-.55 1.329-.275.656-.657 1.588-.855 2.047a7.998 7.998 0 0 0-.398 1.13c-.015.306-.015.306 1.39.825.78.29 1.742.687 2.124.886l.733.367.49-.978c.274-.535.794-1.467 1.16-2.062.367-.596.672-1.1.672-1.13 0-.047-1.802-1.131-2.062-1.223-.107-.046-.703-.351-1.33-.703s-1.175-.626-1.221-.626c-.061.015-.122.076-.153.138zm24.106.443c-.519.305-1.115.626-1.298.718-.458.183-2.2 1.222-2.2 1.283 0 .03.306.534.672 1.13a32.52 32.52 0 0 1 1.161 2.063l.49.977.717-.366c.397-.199 1.36-.596 2.139-.886 1.405-.505 1.405-.505 1.39-.825-.015-.168-.183-.688-.397-1.13-.199-.46-.58-1.391-.856-2.048-.275-.657-.52-1.268-.55-1.329-.122-.214-.244-.168-1.268.413zm-39.26.779c.076.29.26.825.397 1.206.214.612.244.917.336 3.117.046 1.329.107 2.536.107 2.643 0 .26.336.305 2.857.397.947.03 1.894.107 2.123.137l.428.077.061-.459c.061-.458.183-1.191.596-3.574a21.45 21.45 0 0 0 .214-1.33c-.016-.015-.81-.213-1.772-.473-2.72-.703-3.346-.932-4.476-1.62l-1.024-.625.153.504zm54.75.107c-1.1.687-1.71.916-4.46 1.619-.962.244-1.757.458-1.772.473-.015.016.076.612.214 1.33.428 2.383.534 3.116.596 3.574l.06.458.428-.076c.23-.046 1.192-.107 2.124-.137 2.536-.092 2.857-.138 2.857-.398 0-.106.045-1.298.107-2.642.076-2.2.106-2.506.336-3.117.244-.687.58-1.741.534-1.726 0 .015-.458.29-1.023.642zm-27.94 1.542c-.52.535-1.207 1.299-1.528 1.711l-.565.718.947.978a37.56 37.56 0 0 1 1.513 1.65c.32.382.61.687.657.687.045 0 .336-.305.656-.687.306-.367.993-1.115 1.513-1.665l.947-.978-.58-.718c-.566-.703-2.43-2.673-2.536-2.673-.046 0-.49.443-1.024.977zm-7.333 1.1c-.733 1.207-1.527 2.735-1.482 2.78.016.016.505.337 1.085.703a45.8 45.8 0 0 1 1.833 1.268c.428.336.825.566.871.535.061-.046.306-.458.55-.947s.718-1.33 1.039-1.864c.336-.534.61-1.008.61-1.054 0-.122-1.343-1.146-2.535-1.925-.657-.427-1.192-.779-1.207-.779s-.336.58-.764 1.283zm14.437-.351c-.749.504-1.59 1.115-1.849 1.33l-.489.427.672 1.084c.367.596.84 1.467 1.07 1.91.214.458.458.84.504.87s.443-.198.886-.519c.428-.32 1.253-.886 1.833-1.268.58-.366 1.07-.687 1.085-.702.107-.077-2.154-4.08-2.292-4.049-.015 0-.657.428-1.42.917zm-26.398.061c-.03.092-.122.596-.214 1.115-.076.52-.244 1.421-.351 2.002-.107.58-.214 1.268-.245 1.527-.061.535-.153.504 1.497.688.84.107 2.353.382 2.964.565.137.046.214-.138.382-.886.168-.733.81-2.78 1.084-3.56.046-.122-1.008-.488-2.184-.779a40.332 40.332 0 0 1-1.726-.489c-1.024-.305-1.177-.32-1.207-.183zm39.367.199a58.87 58.87 0 0 1-1.71.473c-1.177.29-2.231.672-2.185.78.275.779.916 2.826 1.084 3.559.169.748.245.916.382.886.611-.183 2.124-.458 2.964-.565 1.65-.184 1.558-.138 1.482-.734-.03-.29-.138-.947-.23-1.481a54.442 54.442 0 0 1-.35-2.002c-.108-.58-.2-1.1-.245-1.16-.015-.077-.428.015-1.192.244zm-34.265 2.719c-.428 1.268-.886 3.025-.84 3.07.015.016.504.184 1.085.398.58.214 1.512.596 2.092.84.566.244 1.055.428 1.085.397s.183-.535.336-1.13c.168-.596.458-1.559.642-2.139.198-.58.351-1.054.336-1.07-.199-.152-1.604-.794-2.047-.947a45.97 45.97 0 0 1-1.39-.504c-.443-.168-.81-.305-.825-.305s-.214.626-.474 1.39zm29.04-1.085c-.412.168-1.007.398-1.328.504-.443.153-1.849.795-2.047.948-.016.015.137.488.336 1.069.183.565.489 1.528.641 2.139.168.595.306 1.1.336 1.13s.52-.153 1.085-.397a49.804 49.804 0 0 1 2.093-.84 17.75 17.75 0 0 0 1.085-.397c.122-.092-1.223-4.476-1.36-4.461-.046.015-.428.137-.84.305zm-18.071 1.467c-.78 1.329-1.39 2.475-1.39 2.612 0 .046.183.23.427.413.23.183.902.81 1.497 1.39l1.07 1.07.183-.276c.657-1.07 1.711-2.643 1.925-2.872l.244-.275-.565-.687c-.779-.917-2.429-2.643-2.536-2.643-.06-.015-.443.565-.855 1.268zm6.6-.306a50.813 50.813 0 0 0-1.513 1.665l-.565.673.336.427c.305.367 1.298 1.849 1.833 2.72l.183.275 1.07-1.07c.595-.58 1.267-1.207 1.512-1.39.229-.183.428-.367.428-.412 0-.26-2.078-3.88-2.23-3.88-.077.015-.535.458-1.055.992zm-40.545.077c-.046.015-.473.137-.932.26-.687.183-1.038.366-2.169 1.1-1.207.794-1.36.916-1.405 1.221-.168 1.009-.367 2.506-.367 2.827 0 .382.32 1.94.489 2.383.046.153.397.458.779.718.84.565 1.787.779 3.391.81.932.015 1.452-.062 3.315-.428 1.207-.245 2.216-.443 2.23-.459.016-.015-.152-.657-.366-1.466a47.726 47.726 0 0 1-.504-2.001c-.306-1.299-1.253-3.147-2.047-3.988-.474-.504-1.451-1.023-1.925-1.008-.198 0-.428.015-.489.03zm74.901.26c-.78.458-1.146.824-1.787 1.848-.58.947-1.009 1.94-1.222 2.857-.077.305-.306 1.206-.505 2-.213.81-.382 1.452-.366 1.467.015.016 1.008.214 2.23.459 1.864.366 2.383.443 3.315.427 1.604-.015 2.551-.244 3.392-.81.397-.259.733-.564.779-.717.168-.443.488-2.001.488-2.383 0-.321-.183-1.818-.366-2.827-.046-.305-.183-.427-1.406-1.222-1.1-.718-1.497-.916-2.169-1.1-1.329-.381-1.741-.381-2.383 0zm-46.838.366c-.183.336-1.222 3.85-1.222 4.11 0 .06.138.167.32.213.337.123 1.941 1.04 2.644 1.513.657.443.626.443.748 0 .138-.504.963-2.628 1.207-3.132l.183-.367-.61-.427c-1.33-.948-3.04-2.093-3.117-2.093a.495.495 0 0 0-.153.183zm18.775.657c-.672.458-1.497 1.023-1.833 1.268l-.611.428.183.366c.245.504 1.07 2.628 1.207 3.132.122.443.107.443.749 0 .687-.489 2.306-1.39 2.642-1.512.184-.062.321-.168.321-.214 0-.459-1.191-4.217-1.36-4.262-.03-.016-.626.336-1.298.794zm-43.14.81c.687 1.13.916 1.756 1.619 4.476.244.962.458 1.756.473 1.772.015.015.626-.077 1.33-.214 2.382-.428 3.116-.535 3.574-.596l.458-.061-.076-.428c-.046-.229-.107-1.191-.138-2.123-.091-2.536-.137-2.857-.397-2.857-.107 0-1.298-.046-2.643-.107-2.2-.076-2.505-.107-3.116-.336a18.98 18.98 0 0 0-1.207-.397l-.52-.168.642 1.039zm68.346-.627l-1.207.397-2.413.092c-1.33.046-2.506.107-2.613.107-.26 0-.305.336-.397 2.857a31.22 31.22 0 0 1-.137 2.123l-.077.428.459.061c.458.061 1.191.183 3.574.596a21.45 21.45 0 0 0 1.33.214c.015-.016.213-.81.473-1.772.733-2.827.917-3.346 1.62-4.476.35-.566.626-1.04.61-1.04-.015 0-.565.184-1.222.413zm-60.8 1.222c.015.336.076 1.528.137 2.628.061 1.1.138 2.032.184 2.062.045.046.656.016 1.374-.076a27.104 27.104 0 0 1 2.338-.138h1.023v-1.038c0-.566.077-1.62.138-2.322.076-.718.107-1.33.076-1.375-.046-.046-.993-.123-2.123-.184-1.13-.06-2.322-.122-2.628-.137l-.565-.046.046.626zm53.025-.55c-.138.016-1.177.077-2.307.138-1.13.061-2.078.137-2.124.183-.045.046-.015.657.077 1.375.076.718.137 1.772.137 2.322v1.039h1.039c.565 0 1.62.076 2.322.137.718.077 1.33.107 1.375.077.046-.046.122-.993.183-2.124.061-1.13.122-2.322.138-2.627l.046-.565-.321.015c-.184 0-.428.015-.565.03zm-47.297.657c-.122.734-.26 2.582-.26 3.438v.916l1.04.122c1.313.168 1.45.184 2.535.398.505.106.932.168.978.137.046-.015.077-.504.077-1.07s.06-1.573.137-2.26l.122-1.222-.351-.107c-.78-.199-1.36-.306-2.505-.459a32.11 32.11 0 0 1-1.452-.198c-.244-.015-.29.015-.32.305zm40.911-.137c-1.283.168-2.032.305-2.75.504l-.351.092.076.733c.046.397.107 1.42.138 2.26.046.841.107 1.544.137 1.559.03.015.474-.046.963-.153 1.084-.214 1.206-.244 2.536-.397l1.023-.122v-.917c0-1.42-.244-3.773-.382-3.758-.046.03-.672.107-1.39.199zm-19.92.183c-.23.275-1.452 2.062-1.788 2.643l-.305.504.336.458c.183.26.427.718.565 1.024.214.504.229.642.183 1.955-.015.78-.076 1.482-.122 1.59-.107.244-.413.167-.382-.077.015-.107.061-.78.092-1.467.076-1.42.015-1.696-.596-2.643l-.306-.489-.168.413c-.107.23-.229.672-.275.978-.107.595.016 1.329.49 2.688.244.718.244.856.045.856-.214 0-.504-.718-.825-1.956-.275-1.13-.275-1.466.122-2.581l.245-.718-.672-.688c-1.009-1.039-2.23-2.093-2.338-2.032-.107.062-1.115 2.659-1.314 3.346l-.137.443.458.412c.749.673 1.07 1.207 1.284 2.216.106.488.213 1.206.26 1.573.045.626.045.688-.138.688-.168 0-.214-.092-.26-.49-.03-.259-.137-.931-.244-1.512-.168-.916-.245-1.1-.596-1.527-.489-.611-.87-.932-.963-.795-.03.046-.06.49-.076.978-.015.978.092 1.237.978 2.689.489.779.534.947.275.947-.199 0-.703-.749-1.299-1.91-.336-.672-.382-.84-.397-1.512 0-.413.015-.947.046-1.207l.046-.458-1.009-.627c-1.1-.687-2.276-1.329-2.444-1.329-.137 0-.168.199-.412 1.91-.321 2.276-.336 2.062.26 2.383.885.474 1.359.978 1.802 1.97.55 1.223.78 1.94.657 2.078-.168.168-.29.016-.474-.55-.107-.275-.351-.916-.565-1.39-.32-.703-.489-.916-.916-1.268-.612-.473-.963-.672-1.055-.58-.091.091.168 1.436.337 1.833.091.183.565.764 1.069 1.283.626.657.886 1.008.84 1.115-.03.092-.107.138-.153.122-.183-.076-1.084-.977-1.619-1.65-.611-.733-.855-1.42-.917-2.505l-.03-.489-1.406-.473c-1.634-.535-2.429-.749-2.505-.672-.046.046.107 2.429.23 3.498l.076.535.504.168c1.023.305 1.62.687 2.184 1.39.627.81 1.299 1.91 1.207 2.032-.122.198-.336.06-.596-.398-.152-.26-.519-.81-.84-1.206-.565-.749-1.16-1.161-2.032-1.406l-.366-.107.107.367c.32 1.16.916 1.818 2.474 2.765.398.244.627.443.627.565 0 .107-.046.183-.092.183-.168 0-1.36-.748-2.032-1.267-.702-.566-1.13-1.238-1.39-2.17-.076-.275-.183-.504-.244-.52-.107-.045-1.39-.167-3.208-.305l-.795-.06.061.381c.046.214.306 1.115.596 2.001l.535 1.604.489.031c1.07.061 1.772.305 2.46.87 1.328 1.1 1.94 1.85 1.481 1.85-.046 0-.52-.398-1.039-.887-.504-.489-1.1-.962-1.268-1.054-.397-.183-1.741-.428-1.833-.336-.092.092.107.443.58 1.054.337.428.566.596 1.269.917.473.214 1.1.473 1.39.565.565.183.718.305.55.473-.138.138-.856-.106-2.078-.656-.993-.459-1.512-.917-1.97-1.803-.321-.596-.107-.58-2.384-.26-1.71.245-1.91.275-1.91.413 0 .168.658 1.344 1.33 2.444l.626 1.008.458-.046c.245-.03.795-.045 1.207-.045.672.015.84.045 1.513.397 1.16.596 1.91 1.1 1.91 1.283 0 .275-.169.214-.948-.26-1.451-.886-1.71-.993-2.689-.977-.488.015-.931.045-.977.076-.138.092.183.474.794.962.443.352.626.428 1.528.596a26.32 26.32 0 0 0 1.512.245c.382.045.474.106.474.26 0 .183-.046.183-.672.137a21.212 21.212 0 0 1-1.59-.26c-1.007-.214-1.542-.535-2.214-1.283l-.398-.458-.504.137c-.595.168-3.177 1.176-3.284 1.299-.107.106.917 1.267 2.016 2.352l.718.688.505-.214a6.15 6.15 0 0 1 1.1-.336c.519-.107.687-.107 1.619.137 1.268.32 2.001.626 2.001.84 0 .199-.153.184-.856-.046-1.36-.473-2.092-.595-2.688-.488a5.308 5.308 0 0 0-.978.275l-.412.168.489.305c.947.596 1.222.672 2.642.596.688-.03 1.36-.076 1.467-.092.244-.03.32.275.076.382-.107.046-.81.107-1.588.122-1.314.046-1.452.046-1.956-.183a7.328 7.328 0 0 1-1.023-.565l-.49-.336-.29.214c-.168.122-.32.214-.366.214-.092 0-2.261 1.497-2.505 1.71-.184.184-.184.184 0 .382.244.214 2.413 1.711 2.505 1.711.046 0 .198.092.366.214l.29.214.49-.336c.26-.183.718-.443 1.023-.565.504-.214.642-.23 1.956-.184.779.016 1.481.077 1.588.123.245.107.168.412-.076.382-.107-.016-.78-.062-1.467-.092-1.42-.076-1.695-.015-2.642.596l-.49.305.413.168c1.1.474 1.65.443 3.605-.183.825-.26 1.009-.26.902.015-.061.168-1.238.596-2.307.84-.856.184-1.253.153-2.353-.275l-.534-.213-.703.687c-1.1 1.085-2.123 2.261-2.017 2.353.107.107 2.674 1.13 3.285 1.298l.504.138.397-.459c.672-.748 1.207-1.069 2.215-1.283a21.212 21.212 0 0 1 1.59-.26c.625-.045.671-.045.671.138 0 .168-.091.214-.473.26-.275.03-.947.137-1.513.244-.916.168-1.1.244-1.527.596-.611.489-.932.87-.795.962.046.03.49.061.978.077.978.015 1.237-.092 2.689-.978.779-.489.947-.535.947-.275 0 .199-.749.703-1.91 1.298-.672.337-.84.382-1.512.398-.413 0-.947-.016-1.207-.046l-.458-.046-.627 1.008c-.687 1.1-1.329 2.276-1.329 2.444 0 .138.199.169 1.91.413 2.276.32 2.062.336 2.383-.26.474-.886.978-1.36 1.97-1.802 1.223-.55 1.94-.78 2.078-.657.168.168.016.29-.55.473-.275.107-.916.352-1.39.566-.703.32-.916.488-1.268.916-.473.611-.672.963-.58 1.054.091.092 1.436-.168 1.833-.336.183-.092.764-.565 1.268-1.054.52-.489.993-.886 1.039-.886.458 0-.153.764-1.482 1.848-.688.566-1.39.81-2.46.871l-.489.03-.534 1.605c-.29.886-.565 1.772-.596 2.001l-.061.382.794-.061c1.833-.153 3.117-.275 3.208-.306.061-.015.168-.244.245-.52.26-.931.687-1.603 1.39-2.168.657-.52 1.848-1.268 2.032-1.268.046 0 .091.076.091.168 0 .107-.244.336-.626.58-1.589 1.008-2.139 1.62-2.46 2.765l-.106.367.366-.107c.886-.244 1.467-.657 2.032-1.405.306-.398.687-.948.84-1.207.245-.443.474-.58.596-.382.076.122-.58 1.222-1.207 2.032-.565.702-1.16 1.1-2.184 1.39l-.505.168-.076.534c-.137 1.07-.275 3.438-.23 3.499.077.076.872-.138 2.506-.672l1.406-.474.03-.489c.061-1.084.306-1.772.917-2.505.535-.672 1.436-1.574 1.62-1.65.045-.015.121.03.152.122.046.107-.214.458-.84 1.115-.49.52-.978 1.1-1.07 1.284-.183.397-.427 1.741-.336 1.833.092.091.443-.107 1.054-.58.428-.337.596-.566.917-1.269.214-.473.474-1.1.565-1.39.184-.565.306-.718.474-.55.137.138-.107.856-.657 2.078-.458.993-.917 1.512-1.803 1.97-.596.321-.58.107-.26 2.384.245 1.71.276 1.91.413 1.91.168 0 1.344-.658 2.444-1.33l1.008-.626-.045-.459c-.03-.244-.046-.794-.046-1.206.015-.673.046-.84.397-1.513.596-1.16 1.1-1.91 1.299-1.91.26 0 .213.169-.275.948-.886 1.451-.993 1.71-.978 2.688.015.49.046.932.076.978.092.138.474-.183.963-.794.351-.443.427-.627.595-1.528a26.32 26.32 0 0 0 .245-1.512c.046-.382.107-.474.26-.474.183 0 .183.046.137.672a21.212 21.212 0 0 1-.26 1.59c-.214 1.007-.534 1.542-1.283 2.214l-.458.413.137.443c.199.687 1.207 3.284 1.314 3.345s1.33-.993 2.337-2.032l.673-.687-.245-.718c-.397-1.115-.397-1.451-.122-2.582.305-1.237.611-1.955.825-1.955.198 0 .183.153-.046.855-.474 1.36-.596 2.093-.489 2.69.046.305.184.748.275.977l.168.412.306-.489c.596-.947.672-1.222.596-2.642a32.213 32.213 0 0 0-.092-1.467c-.03-.244.275-.32.382-.076.046.107.107.81.122 1.588.046 1.314.046 1.452-.183 1.956a7.328 7.328 0 0 1-.566 1.023l-.336.459.306.504c.412.702 1.589 2.429 1.818 2.673.183.183.183.183.382 0 .198-.214 1.543-2.184 1.894-2.795l.214-.398-.336-.458a7.328 7.328 0 0 1-.565-1.023c-.214-.505-.23-.642-.184-1.956.016-.779.077-1.482.122-1.589.107-.244.413-.168.382.077-.015.107-.06.779-.091 1.466-.077 1.421-.016 1.696.595 2.643l.306.489.168-.412c.474-1.1.443-1.65-.183-3.606-.26-.825-.26-1.008.015-.901.168.061.596 1.237.84 2.307.184.84.153 1.176-.275 2.368l-.198.534.687.703c1.008 1.039 2.23 2.093 2.337 2.032.107-.061 1.116-2.658 1.314-3.346l.138-.443-.459-.412c-.748-.672-1.069-1.207-1.283-2.215a21.212 21.212 0 0 1-.26-1.59c-.045-.626-.045-.671.138-.671.168 0 .214.091.26.473.03.275.137.947.244 1.513.168.916.23 1.084.596 1.527.504.627.886.947.978.81.03-.046.06-.489.076-.978.015-.977-.092-1.237-.978-2.688-.489-.78-.534-.948-.26-.948.184 0 .688.749 1.284 1.91.336.672.382.84.397 1.512 0 .413-.015.947-.046 1.207l-.046.458 1.009.627c1.1.687 2.276 1.329 2.444 1.329.137 0 .168-.199.412-1.91.321-2.276.336-2.062-.26-2.383-.886-.473-1.36-.978-1.802-1.97-.55-1.223-.78-1.94-.657-2.078.168-.168.29-.015.474.55.107.275.35.916.565 1.39.32.703.489.917.916 1.268.611.474.963.672 1.054.58.092-.091-.168-1.436-.336-1.833-.091-.183-.565-.764-1.069-1.283-.626-.657-.886-1.008-.84-1.115.03-.092.107-.138.153-.122.183.076 1.084.977 1.619 1.65.611.733.855 1.42.916 2.505l.031.489 1.405.473c1.635.535 2.43.749 2.506.672.046-.045-.107-2.428-.23-3.498l-.076-.535-.504-.168c-1.023-.305-1.62-.687-2.184-1.39-.627-.81-1.299-1.91-1.207-2.032.122-.183.305-.076.58.398.168.26.535.81.84 1.207.566.748 1.162 1.16 2.032 1.405l.367.107-.107-.367c-.32-1.16-.917-1.818-2.46-2.765-.412-.244-.626-.443-.626-.565 0-.107.046-.183.092-.183.168 0 1.36.748 2.032 1.268.702.565 1.13 1.237 1.39 2.169.076.275.183.504.244.52.107.045 1.39.167 3.208.305l.795.06-.062-.381c-.045-.214-.305-1.115-.595-2.001l-.535-1.604-.489-.03c-1.07-.062-1.772-.306-2.46-.872-1.328-1.1-1.94-1.848-1.481-1.848.046 0 .52.397 1.039.886.504.489 1.1.962 1.268 1.054.397.183 1.741.428 1.833.336.091-.091-.107-.443-.58-1.054-.337-.428-.566-.596-1.269-.916-.473-.214-1.1-.474-1.39-.566-.565-.183-.718-.305-.55-.473.138-.138.856.107 2.078.657.993.458 1.512.916 1.97 1.802.321.596.107.58 2.384.26 1.71-.244 1.91-.275 1.91-.413 0-.168-.658-1.344-1.33-2.444l-.626-1.008-.459.046c-.244.03-.794.046-1.206.046-.673-.016-.84-.046-1.513-.398-1.16-.595-1.91-1.1-1.91-1.298 0-.26.169-.214.948.275 1.451.886 1.71.993 2.689.978.488-.016.931-.046.977-.077.138-.091-.183-.473-.794-.962-.443-.352-.627-.428-1.528-.596a26.32 26.32 0 0 0-1.512-.244c-.397-.046-.489-.107-.489-.26 0-.183.046-.183.687-.138.367.046 1.085.153 1.574.26 1.008.214 1.543.535 2.215 1.283l.397.459.504-.138c.596-.168 3.178-1.176 3.285-1.298.107-.107-.917-1.268-2.017-2.353l-.702-.687-.535.213c-1.1.428-1.513.474-2.353.275-1.07-.244-2.245-.656-2.306-.84-.107-.275.076-.275.9-.015 1.956.626 2.155.657 3.377.26l.642-.214-.245-.184c-.137-.106-.535-.336-.886-.504l-.657-.305-1.298.076c-.718.03-1.406.077-1.513.092-.244.03-.32-.275-.076-.382.107-.046.81-.107 1.589-.122 1.313-.046 1.451-.046 1.955.183a7.41 7.41 0 0 1 1.024.565l.488.336.29-.213c.169-.123.322-.214.352-.214.076 0 2.292-1.513 2.52-1.711.184-.184.184-.184 0-.382-.244-.214-2.413-1.711-2.505-1.711-.045 0-.198-.092-.366-.214l-.29-.214-.49.336c-.26.183-.717.443-1.023.565-.504.214-.642.23-1.955.184-.78-.016-1.482-.077-1.59-.123-.243-.106-.167-.412.077-.381.107.015.78.06 1.467.091 1.42.077 1.696.015 2.643-.596l.489-.305-.413-.168c-1.1-.474-1.65-.443-3.605.183-.825.26-1.008.26-.901-.015.06-.168 1.237-.596 2.306-.84.856-.184 1.253-.153 2.353.275l.535.214.702-.688c1.1-1.085 2.124-2.26 2.017-2.352-.107-.107-2.674-1.13-3.285-1.299l-.504-.137-.397.458c-.672.748-1.207 1.07-2.215 1.283-.489.107-1.207.214-1.574.26-.626.046-.687.046-.687-.138 0-.168.092-.214.489-.26.26-.03.932-.137 1.512-.244.917-.168 1.1-.244 1.528-.596.61-.488.932-.87.794-.962-.046-.03-.489-.061-.977-.076-.978-.016-1.238.091-2.69.977-.778.49-.946.535-.946.26 0-.183.748-.687 1.91-1.283.671-.336.84-.382 1.512-.397.412 0 .947.015 1.206.045l.459.046.626-1.008c.688-1.1 1.33-2.276 1.33-2.444 0-.138-.2-.168-1.91-.413-2.277-.32-2.063-.336-2.384.26-.473.886-.977 1.36-1.97 1.803-1.222.55-1.94.779-2.078.656-.168-.168-.015-.29.55-.473.275-.107.917-.351 1.39-.565.703-.321.917-.49 1.268-.917.474-.611.672-.962.58-1.054-.09-.092-1.435.168-1.832.336-.184.092-.764.565-1.268 1.054-.52.489-.993.886-1.04.886-.457 0 .154-.764 1.483-1.848.687-.566 1.39-.81 2.46-.871l.488-.03.535-1.605c.29-.886.565-1.772.595-2l.062-.383-.795.061c-1.833.153-3.116.275-3.208.306-.061.015-.168.244-.244.52-.26.931-.688 1.603-1.39 2.169-.657.519-1.849 1.267-2.032 1.267-.046 0-.092-.076-.092-.183 0-.122.214-.32.626-.565 1.543-.947 2.14-1.62 2.46-2.765l.107-.367-.367.107c-.886.245-1.466.657-2.031 1.406-.306.397-.688.947-.84 1.206-.276.459-.459.581-.581.398-.077-.123.58-1.222 1.207-2.032.565-.703 1.16-1.1 2.184-1.39l.504-.168.077-.535c.137-1.07.275-3.437.229-3.498-.077-.077-.87.137-2.506.672l-1.405.473-.03.49c-.062 1.084-.306 1.771-.917 2.505-.535.672-1.436 1.573-1.62 1.65-.045.015-.122-.031-.152-.123-.046-.107.214-.458.84-1.115.489-.52.978-1.1 1.07-1.283.183-.397.427-1.742.335-1.833-.091-.092-.443.107-1.054.58-.427.336-.595.565-.916 1.268-.214.474-.474 1.1-.565 1.39-.184.566-.306.718-.474.55-.137-.137.107-.855.657-2.077.458-.993.916-1.513 1.803-1.971.595-.32.58-.107.26-2.383-.245-1.711-.276-1.91-.413-1.91-.168 0-1.345.657-2.444 1.33l-1.009.626.046.458c.03.244.046.794.046 1.207-.015.672-.046.84-.397 1.512-.596 1.161-1.1 1.91-1.283 1.91-.275 0-.214-.168.26-.947.885-1.452.992-1.711.977-2.69-.015-.488-.046-.93-.076-.977-.092-.137-.474.184-.963.795-.351.443-.428.626-.596 1.527a26.32 26.32 0 0 0-.244 1.513c-.046.397-.107.489-.26.489-.183 0-.183-.046-.137-.688a20.38 20.38 0 0 1 .26-1.573c.213-1.009.534-1.543 1.283-2.216l.458-.412-.138-.443c-.152-.535-.977-2.734-1.176-3.132-.183-.366-.275-.32-1.848 1.207l-1.314 1.268.199.55c.427 1.192.473 1.528.274 2.383-.244 1.07-.656 2.246-.84 2.307-.275.107-.275-.076-.015-.901.626-1.956.657-2.506.183-3.606l-.168-.412-.305.489c-.596.947-.672 1.222-.596 2.643.03.687.076 1.36.092 1.466.03.245-.275.321-.382.077-.046-.107-.107-.81-.122-1.59-.046-1.313-.046-1.45.183-1.955a7.35 7.35 0 0 1 .565-1.023l.336-.458-.29-.49c-.367-.595-1.589-2.428-1.803-2.673-.076-.091-.183-.168-.214-.168s-.198.122-.275.214zm-.123 18.546c.03.091 0 .198-.076.244s-.092.092-.03.092.167.137.244.305.168.306.198.306.138-.138.199-.306c.076-.168.183-.305.244-.305s.046-.046-.03-.092-.107-.168-.077-.244c.077-.168.321-.214.413-.077.03.046.168.062.305.046.26-.046.443.138.275.29-.091.092.016.612.153.78.076.091.535-.428.535-.596 0-.26.122-.29.55-.153.427.153.534.29.366.489a.46.46 0 0 0-.076.32c.015.108.046.276.046.383.015.168.046.152.351-.046.183-.122.321-.275.29-.352-.076-.198.245-.275.459-.106.091.076.244.183.351.213.199.077.23.352.046.428-.076.015-.138.23-.153.458l-.03.398.336-.168c.183-.092.382-.245.443-.321.137-.184.443-.092.443.137 0 .077.076.153.152.153.245 0 .306.306.077.489-.107.092-.245.29-.306.443l-.122.275.397-.03c.214-.016.428-.077.443-.153.077-.184.367-.168.428.045.03.107.138.26.214.352.168.198.092.534-.107.458-.076-.03-.23.107-.351.29-.214.336-.214.336-.016.352.443.03.566.015.734-.061.214-.092.275-.046.427.427.138.413.107.535-.152.535-.168 0-.688.458-.596.535.168.137.687.244.779.152.168-.168.336.016.29.275-.015.138 0 .275.046.306.153.092.107.336-.076.412-.092.03-.199 0-.245-.076-.046-.076-.091-.092-.091-.03s-.138.167-.306.244-.306.168-.306.198.138.138.306.2c.168.075.306.182.306.243s.045.046.091-.03.168-.107.245-.076c.168.076.214.32.076.412-.046.03-.061.168-.046.306.046.26-.137.443-.29.275-.092-.092-.611.015-.78.152-.09.077.429.535.597.535.26 0 .29.122.152.535-.168.458-.213.504-.427.427-.168-.076-.29-.091-.734-.06-.198.015-.198.015.016.35.122.184.275.321.351.29.199-.075.275.245.107.46a1.372 1.372 0 0 0-.214.335c-.076.214-.351.245-.428.046-.015-.076-.214-.137-.443-.153l-.397-.03.122.275c.061.153.214.351.306.443.214.183.168.489-.077.489a.164.164 0 0 0-.152.152c0 .214-.306.306-.443.138a1.656 1.656 0 0 0-.443-.32l-.336-.169.03.397c.015.214.077.428.153.459.183.076.168.366-.046.427-.107.03-.26.138-.351.214-.199.168-.535.092-.459-.107.031-.076-.107-.229-.29-.351-.305-.199-.336-.214-.351-.046 0 .107-.015.275-.046.382a.46.46 0 0 0 .076.32c.168.2.046.337-.366.49-.428.137-.55.107-.55-.153 0-.168-.459-.688-.535-.596-.137.168-.244.687-.153.78.168.167-.015.335-.275.29-.137-.016-.275 0-.305.045-.092.153-.336.107-.413-.076-.03-.092 0-.199.077-.245.076-.045.091-.091.03-.091s-.168-.138-.244-.306-.168-.305-.199-.305-.137.137-.198.305c-.077.168-.184.306-.245.306s-.046.046.03.091.108.168.077.245c-.076.168-.32.214-.412.076-.03-.046-.168-.06-.306-.046-.26.046-.443-.137-.275-.29.092-.092-.015-.61-.153-.779-.076-.092-.534.428-.534.596 0 .26-.122.29-.55.153-.428-.153-.535-.29-.367-.49a.46.46 0 0 0 .077-.32c-.016-.107-.046-.275-.046-.382-.016-.168-.046-.153-.352.046-.183.122-.32.275-.29.351.077.199-.244.275-.458.107a1.372 1.372 0 0 0-.336-.214c-.214-.076-.245-.351-.046-.427.076-.016.137-.23.153-.459l.03-.397-.336.168a1.656 1.656 0 0 0-.443.32c-.137.184-.443.093-.443-.137a.164.164 0 0 0-.153-.152c-.244 0-.305-.306-.076-.49.107-.09.244-.29.305-.442l.123-.275-.397.03c-.214.016-.428.077-.443.153-.077.183-.367.168-.428-.046a1.372 1.372 0 0 0-.214-.336c-.168-.198-.092-.534.107-.458.076.03.229-.107.351-.29.214-.336.214-.336.015-.352-.443-.03-.565-.015-.733.061-.214.092-.275.046-.428-.427-.137-.413-.106-.535.153-.535.168 0 .688-.458.596-.535-.168-.137-.687-.244-.78-.152-.167.168-.335-.016-.29-.275.016-.138 0-.275-.045-.306-.153-.092-.107-.336.076-.412.092-.031.199 0 .245.076s.091.092.091.03.138-.168.306-.244.305-.168.305-.199-.137-.137-.305-.198c-.168-.077-.306-.183-.306-.245s-.046-.045-.091.031-.168.107-.245.076c-.168-.076-.214-.32-.076-.412.046-.03.06-.168.046-.306-.046-.26.137-.443.29-.275.092.092.611-.015.779-.152.092-.077-.428-.535-.596-.535-.26 0-.29-.122-.153-.535.168-.458.214-.504.428-.427.168.076.29.091.733.06.2-.015.2-.015-.015-.35-.122-.184-.275-.322-.351-.291-.199.076-.275-.244-.107-.458.076-.092.183-.245.214-.352.076-.198.351-.229.428-.045.015.076.213.137.443.152l.397.03-.123-.274a1.621 1.621 0 0 0-.305-.443c-.214-.183-.168-.489.076-.489a.164.164 0 0 0 .153-.153c0-.214.306-.305.443-.137.061.076.26.229.443.32l.336.169-.03-.398c-.016-.213-.077-.427-.153-.458-.183-.076-.168-.366.046-.428a1.38 1.38 0 0 0 .336-.213c.198-.169.535-.092.458.106-.03.077.107.23.29.352.306.198.336.214.352.046 0-.107.015-.275.046-.382a.46.46 0 0 0-.077-.321c-.168-.199-.046-.336.367-.489.428-.137.55-.107.55.153 0 .168.458.687.534.596.138-.168.245-.688.153-.78-.168-.168.015-.336.275-.29.138.016.275 0 .306-.046.091-.152.351-.091.412.077zm-.122 5.652c-1.344.336-2.001 1.864-1.299 3.055.78 1.345 2.75 1.345 3.53 0 .9-1.542-.52-3.483-2.231-3.055zm-15.75-23.358c-.107.657-.245 2.552-.245 3.407v.87l.382.062c.199.046 1.054.29 1.895.565.84.275 1.573.489 1.634.489.046 0 .107-.168.107-.382 0-.32.26-2.23.458-3.345.062-.367.062-.367-.427-.55a8.524 8.524 0 0 1-.795-.352c-.275-.153-2.2-.886-2.734-1.039-.183-.045-.214 0-.275.275zm31.958-.214c-.595.184-2.474.917-2.658 1.04-.107.076-.428.213-.687.305-.49.183-.49.183-.428.55.199 1.115.458 3.025.458 3.345 0 .214.046.382.107.382s.795-.214 1.635-.489 1.696-.534 1.91-.565l.366-.06v-.872c0-.84-.137-2.734-.244-3.406-.061-.352-.077-.352-.459-.23zm-41.048 4.263c-.657.06-1.206.137-1.222.168-.091.107.397 3.284.642 4.216l.107.351 1.222-.122a24.819 24.819 0 0 1 2.26-.137c.566-.016 1.04-.046 1.07-.092.03-.046-.046-.489-.137-.978-.214-1.084-.245-1.207-.397-2.536l-.123-1.023-1.115.015c-.641 0-1.665.061-2.307.138zm3.865.412c.077.688.306 2.2.49 3.208l.121.703 1.36.107c.749.06 1.68.153 2.093.183l.733.077-.076-.734a51.88 51.88 0 0 1-.184-2.093l-.106-1.36-.703-.121a56.359 56.359 0 0 0-3.208-.49l-.596-.076.076.596zm41.705-.458c-.641.076-2.963.489-3.162.534-.061.016-.168.703-.23 1.559-.076.855-.152 1.787-.183 2.093l-.06.534.748-.076a51.88 51.88 0 0 1 2.093-.183l1.36-.107.122-.703c.168-.993.412-2.505.488-3.193l.062-.565-.275.015c-.184 0-.611.046-.963.092zm1.513.916c-.168 1.33-.184 1.452-.398 2.536-.107.49-.168.932-.137.978.015.046.504.076 1.07.092.564 0 1.573.06 2.26.137l1.222.122.092-.351c.214-.886.336-1.451.504-2.765.107-.78.168-1.42.153-1.451-.077-.077-2.643-.306-3.605-.306l-1.009-.015-.152 1.023zm-49.374-.656c-.183.015-.825.122-1.406.229s-1.481.275-2 .351c-.52.092-1.024.183-1.116.214-.137.046-.122.183.183 1.222.184.642.413 1.42.49 1.726.29 1.177.656 2.23.778 2.185.78-.275 2.826-.917 3.56-1.085.748-.168.916-.244.886-.382-.184-.61-.459-2.123-.565-2.963-.138-1.33-.184-1.559-.337-1.528-.076-.015-.29.015-.473.03zm54.537.213c-.03.153-.107.718-.168 1.268-.107.84-.382 2.353-.565 2.964-.046.137.137.214.886.382.733.168 2.78.81 3.56 1.085.121.045.488-1.009.778-2.185.077-.306.29-1.085.49-1.726.305-1.04.32-1.177.182-1.222-.091-.03-.595-.123-1.115-.214-.52-.077-1.42-.245-2-.352a31.435 31.435 0 0 0-1.529-.244c-.443-.015-.473-.015-.519.244zM15.2 30.194c-2.383.504-3.055.565-4.354.443-.595-.061-1.115-.076-1.145-.061-.031.03.305.428.748.886.917.962 1.344 1.604 2.322 3.544.382.78.78 1.543.886 1.711l.168.306 1.161-.49c.642-.259 1.574-.656 2.078-.87a27.33 27.33 0 0 1 1.329-.535c.214-.076.412-.137.412-.168 0-.03-.107-.397-.244-.81a70.025 70.025 0 0 1-.733-2.52c-.459-1.65-.504-1.757-.749-1.772-.107 0-.962.153-1.879.336zm67.492-.29c-.016.046-.245.84-.504 1.787-.26.932-.58 2.047-.718 2.475-.138.428-.245.779-.245.81 0 .03.183.106.413.168.229.076.84.305 1.329.534.504.214 1.436.611 2.077.871l1.161.489.168-.306c.107-.168.52-.993.947-1.818.978-1.94 1.299-2.429 2.261-3.437.443-.458.78-.855.749-.886-.03-.015-.535 0-1.146.061-1.298.138-1.91.077-4.384-.443-1.88-.397-2.032-.412-2.108-.305zm-76.016.137c-.077.046-.504.26-.947.474-.703.32-.947.52-1.94 1.527-.627.627-1.177 1.238-1.207 1.36-.046.107-.016.84.06 1.62.154 1.527.367 2.276.963 3.314.275.49.397.58.963.84.366.169.886.321 1.176.352.703.076 2.337-.138 3.147-.397.535-.168 4.384-1.833 4.491-1.94.046-.046-1.802-3.636-2.184-4.232-.367-.596-1.94-2.184-2.46-2.475-.382-.229-1.482-.565-1.772-.55-.076.016-.214.046-.29.107zm85.502.092c-.35.107-.81.305-1.008.443-.52.336-2.001 1.879-2.337 2.414-.382.595-2.23 4.185-2.185 4.216.107.107 3.942 1.757 4.492 1.94.81.26 2.444.458 3.147.397.29-.03.825-.183 1.176-.351.565-.26.687-.367.962-.84.596-1.04.81-1.803.963-3.315.076-.78.107-1.513.06-1.62-.137-.366-2.336-2.505-2.81-2.734-1.696-.84-1.543-.81-2.46-.55zm-66.284 3.529c-1.482.137-1.574.168-1.513.428.153.519.886 2.459 1.04 2.734.09.168.244.52.35.794.184.49.184.49.55.428 1.116-.198 3.025-.458 3.346-.458.199 0 .367-.046.367-.107s-.214-.794-.49-1.635c-.274-.84-.534-1.695-.564-1.91l-.062-.366-1.069.015c-.58-.015-1.466.016-1.955.077zm45.157.26c-.046.213-.29 1.069-.565 1.909-.275.84-.49 1.574-.49 1.635 0 .045.169.107.383.107.32 0 2.23.26 3.345.458.367.061.367.061.55-.428.107-.275.23-.58.306-.687.122-.184.962-2.383 1.1-2.826.046-.184.015-.23-.275-.275-.657-.107-2.551-.245-3.407-.245h-.87l-.077.351zm-48.09.229c-.627.168-3.545 1.1-3.545 1.13 0 .015.138.382.306.825.168.443.367 1.024.458 1.299.107.366.825 1.91.978 2.123.015.015.489-.138 1.07-.336.565-.183 1.527-.489 2.138-.642.596-.168 1.115-.305 1.146-.336.03-.03-.138-.473-.367-.978-.458-.992-1.1-2.688-1.191-3.07-.046-.245-.046-.245-.993-.015zm53.116.015c-.092.382-.749 2.078-1.192 3.07-.213.505-.397.948-.366.978s.55.183 1.146.336c.595.168 1.558.459 2.138.642.58.198 1.054.351 1.07.336.152-.199.794-1.604.947-2.047.107-.32.336-.947.504-1.39.168-.443.305-.81.305-.825 0-.092-4.155-1.33-4.46-1.33-.03.016-.061.108-.092.23zm-57.822 1.482a31.32 31.32 0 0 0-1.298.534c-.428.184-1.13.49-1.543.657-1.039.413-1.299.535-1.299.627 0 .045.275.58.627 1.206.351.627.657 1.207.703 1.33.106.26 1.176 2.062 1.222 2.062.03 0 .534-.306 1.13-.672a32.52 32.52 0 0 1 2.062-1.161l.978-.49-.366-.717c-.2-.397-.596-1.36-.887-2.139-.305-.825-.58-1.42-.656-1.42-.107 0-.398.076-.673.183zm62.65.076c-.062.153-.276.749-.49 1.33-.213.58-.565 1.42-.81 1.878l-.412.825.978.489a36.77 36.77 0 0 1 2.062 1.161c.596.367 1.1.672 1.13.672.047 0 1.131-1.802 1.223-2.062.046-.107.351-.703.703-1.33s.626-1.176.626-1.221c0-.046-.061-.107-.122-.138a157.995 157.995 0 0 1-3.33-1.405c-.443-.199-.948-.382-1.13-.413-.291-.06-.322-.046-.429.214zm-67.508 1.97c-.137.062-1.038.46-2 .887-2.2.962-2.796 1.16-4.095 1.314l-1.039.137.886.55c1.009.626 1.895 1.482 3.147 3.01.49.58 1.024 1.237 1.207 1.45l.336.398 1.375-.993c1.68-1.207 2.857-2.032 3.01-2.078.076-.015.015-.168-.153-.397-.153-.183-.657-1.07-1.115-1.94-1.345-2.566-1.268-2.46-1.559-2.337zM86.144 38c-.122.214-.61 1.13-1.07 2.002-.473.87-.977 1.756-1.13 1.94-.168.214-.229.366-.152.397.152.046 1.329.855 3.01 2.077l1.374.993.336-.397c.183-.214.733-.855 1.207-1.451 1.253-1.528 2.154-2.383 3.147-3.01l.886-.55-1.039-.137c-.916-.107-2.352-.489-2.81-.733A122.5 122.5 0 0 0 87 37.832l-.657-.275-.199.443zm-61.809 1.01c-2.031.565-2.856.886-2.856 1.069.015.153 1.084 1.803 2.001 3.07l.458.627.367-.183c.504-.245 2.627-1.07 3.132-1.207.443-.123.443-.107 0-.749-.49-.687-1.39-2.307-1.513-2.643-.076-.183-.183-.32-.275-.305-.091-.016-.687.137-1.314.32zm49.771-.031c-.122.336-1.038 1.94-1.512 2.643-.443.657-.443.626 0 .748.504.138 2.628.963 3.132 1.207l.366.184.459-.627c.916-1.268 2-2.918 2-3.07.016-.123-.244-.245-.9-.474-.948-.32-3.147-.947-3.33-.947-.062.015-.154.168-.215.336zM3.208 40.277c-.886.58-1.757 1.558-2.444 2.75-.367.595-.672 1.19-.688 1.328-.015.123.168.856.428 1.635.489 1.482.856 2.154 1.68 3.025.398.412.505.473 1.1.58 1.009.168 1.253.138 2.613-.32.977-.337 1.466-.566 2.123-1.04.917-.626 2.857-2.062 3.254-2.398l.23-.198-1.07-1.253c-1.849-2.2-2.2-2.551-3.147-3.208-1.268-.856-1.803-1.1-2.765-1.176-.795-.046-.81-.046-1.314.275zm91.75-.214c-.58.107-1.114.366-2.23 1.13-.916.626-1.268.978-3.116 3.178l-1.07 1.252.23.199c.351.305 2.276 1.726 3.208 2.383a8.11 8.11 0 0 0 1.772.917c1.68.626 1.894.656 3.01.458.595-.107.702-.168 1.1-.58.809-.871 1.176-1.544 1.68-3.025.26-.78.458-1.513.427-1.635-.015-.137-.336-.718-.687-1.329-.687-1.176-1.573-2.17-2.444-2.734-.535-.321-.902-.367-1.88-.214zm-75.083.641c-.795.428-2.796 1.589-2.933 1.726-.061.046 1.879 2.903 2.276 3.361l.397.443 1.085-.657c.595-.366 1.466-.84 1.91-1.069.458-.214.84-.458.87-.504.046-.046-.244-.504-.611-1.008-.382-.504-.947-1.33-1.283-1.849s-.627-.947-.657-.947c-.03-.015-.504.214-1.054.504zm58.631.336a34.312 34.312 0 0 1-1.283 1.849c-.397.534-.703 1.039-.672 1.1.045.046.458.29.947.534s1.329.718 1.863 1.04c.535.335 1.009.61 1.055.61.183 0 2.795-3.666 2.673-3.758-.32-.275-3.88-2.276-4.018-2.26 0 .015-.26.412-.565.885zm-62.695 2.063c-.366.229-.947.657-1.314.916a133.6 133.6 0 0 1-1.481 1.085c-.459.336-.81.626-.795.672.046.122 1.94 2.261 2.796 3.132l.748.779.856-.856c.473-.473 1.237-1.176 1.741-1.558.49-.397.871-.748.871-.779 0-.046-.275-.428-.626-.84a31.442 31.442 0 0 1-1.33-1.88c-.381-.595-.717-1.1-.748-1.1s-.366.2-.718.429zm66.957.672a21.772 21.772 0 0 1-1.329 1.879c-.351.428-.626.81-.626.84 0 .03.397.382.886.78a32.122 32.122 0 0 1 1.726 1.557l.855.856.749-.78c.84-.87 2.735-3.009 2.796-3.131.015-.046-.336-.336-.795-.672-.458-.32-1.176-.856-1.634-1.176-.78-.58-1.788-1.253-1.88-1.253-.015 0-.35.504-.748 1.1zm-59.945 1.07c-1.207.626-2.902 1.664-2.902 1.771 0 .107 1.726 1.772 2.642 2.536l.673.565.427-.336c.367-.305 1.849-1.298 2.72-1.833l.274-.183-1.069-1.07c-.58-.595-1.207-1.268-1.39-1.512-.183-.23-.367-.428-.428-.428-.046.03-.473.245-.947.49zm52.994-.047c-.183.245-.81.917-1.39 1.513l-1.07 1.07.276.182c.855.52 2.352 1.528 2.719 1.834l.428.336.672-.566c.916-.763 2.643-2.413 2.643-2.535 0-.153-3.62-2.23-3.88-2.23-.031-.016-.214.167-.398.396zm-65.735 2.445c-2 1.527-2.673 1.94-3.88 2.367-.504.184-.932.367-.932.398s.428.214.932.397c1.207.428 1.88.84 3.88 2.368l1.65 1.268.596-.627c.32-.351.993-1.1 1.497-1.68s1.07-1.207 1.268-1.39l.367-.321-.367-.336c-.183-.168-.764-.795-1.268-1.375s-1.176-1.33-1.497-1.68l-.596-.627-1.65 1.238zm77.345-.336c-.473.504-1.13 1.267-1.497 1.68-.351.412-.81.901-1.008 1.07l-.351.335.366.321c.184.183.78.825 1.299 1.436.52.596 1.191 1.36 1.497 1.68l.55.581 1.558-1.207c1.88-1.451 2.765-2.001 3.987-2.429.504-.183.917-.366.917-.397s-.428-.214-.917-.397c-.504-.183-1.207-.489-1.527-.688-.474-.275-2.246-1.573-3.926-2.856-.077-.03-.398.26-.948.87zm-68.698.595c-.412.321-1.176 1.024-1.711 1.543l-.962.947.855.856a26.939 26.939 0 0 0 1.726 1.558l.856.703.993-.932c.534-.52 1.283-1.207 1.665-1.512.367-.321.672-.612.672-.657 0-.046-.305-.336-.672-.657-.382-.306-1.13-.993-1.665-1.513-.535-.519-.993-.947-1.008-.947 0 .016-.337.275-.749.611zm60.984.153c-.413.413-1.146 1.1-1.62 1.512-.488.413-.886.795-.886.84 0 .046.306.337.688.658a37.56 37.56 0 0 1 1.65 1.512l.977.947.871-.718c.49-.382 1.253-1.085 1.726-1.558l.856-.856-.856-.855c-.763-.749-2.535-2.276-2.612-2.246-.015.016-.382.352-.794.764zM3.132 50.451c-.657.137-.978.443-1.772 1.588-.443.642-1.36 3.239-1.3 3.621.015.138.336.719.688 1.33.687 1.176 1.558 2.17 2.444 2.75.489.32.52.336 1.298.275.963-.077 1.513-.306 2.765-1.177.932-.641 1.284-.993 3.147-3.208l1.07-1.252-.23-.199c-.35-.305-2.276-1.726-3.208-2.383a8.11 8.11 0 0 0-1.772-.917c-1.665-.626-2.016-.672-3.131-.427zm11.87.641c-.887.917-2.75 3.025-2.796 3.132-.015.046.336.336.794.672.459.32 1.177.856 1.635 1.176.916.688 1.848 1.299 1.91 1.238.015-.015.35-.535.748-1.146.397-.611.978-1.451 1.33-1.864.335-.427.595-.794.595-.825s-.397-.366-.886-.763c-.489-.398-.917-.749-.932-.795s-.397-.428-.84-.855l-.81-.78-.748.81zm7.53-.214c-1.038.886-2.611 2.414-2.611 2.506 0 .168 3.605 2.23 3.88 2.23.046 0 .229-.183.412-.428.184-.229.81-.9 1.39-1.497l1.07-1.07-.275-.182c-.886-.535-2.857-1.88-2.949-2.002-.076-.076-.152-.137-.183-.137-.061.015-.382.26-.733.58zm54.064-.427c-.107.137-2.062 1.466-2.948 2l-.275.184 1.07 1.07c.58.595 1.206 1.267 1.39 1.497.183.244.366.427.412.427.26 0 3.88-2.077 3.88-2.23 0-.168-3.162-3.086-3.345-3.086-.03-.015-.107.061-.184.138zm6.829.702c-.474.474-1.237 1.177-1.726 1.559-.49.397-.886.733-.886.763s.275.398.595.825c.337.428.932 1.253 1.33 1.864.397.596.718 1.13.748 1.146.046.046.978-.55 1.91-1.238.458-.336 1.176-.855 1.634-1.176.459-.336.81-.626.795-.672-.046-.122-1.94-2.261-2.796-3.132l-.749-.779-.855.84zm11.64-.733c-1.13.306-2.352.856-3.085 1.36-.917.657-2.857 2.077-3.208 2.383l-.23.198 1.07 1.253c1.848 2.2 2.2 2.551 3.147 3.208 1.268.856 1.803 1.1 2.765 1.176.78.062.81.046 1.298-.275.887-.58 1.757-1.558 2.445-2.75.366-.595.672-1.19.687-1.328.015-.123-.168-.856-.428-1.635-.488-1.482-.855-2.154-1.68-3.025-.397-.412-.504-.473-1.1-.58-.764-.122-1.207-.122-1.68.015zM18.99 54.484c-.535.687-2.124 3.04-2.063 3.086.382.336 3.972 2.322 4.049 2.23.015-.015.29-.458.626-.978s.917-1.36 1.268-1.833c.367-.489.626-.932.596-.978-.03-.046-.459-.29-.947-.534s-1.33-.718-1.864-1.04c-.535-.335-1.008-.61-1.054-.61-.03-.016-.306.29-.611.657zm60.388-.061c-.535.336-1.39.81-1.864 1.038-.489.245-.917.49-.947.55-.03.046.244.49.596.978.366.489.931 1.314 1.268 1.833.336.52.626.963.626.978.076.076 3.666-1.91 4.048-2.23.107-.107-2.505-3.759-2.673-3.759-.046 0-.52.275-1.054.612zm-68.76 1.619c-1.62 1.94-2.429 2.734-3.468 3.391l-.886.55 1.04.138c1.114.137 2.245.458 3.284.947.366.168 1.191.535 1.848.84l1.207.52.23-.428c.137-.214.625-1.13 1.099-2.002.458-.87.962-1.756 1.115-1.94.168-.214.23-.366.153-.397-.153-.046-1.33-.855-2.994-2.062-.749-.535-1.375-.978-1.39-.978s-.58.642-1.238 1.42zm76.123-.428c-1.451 1.07-2.78 1.97-2.948 2.032-.061.015.015.183.168.397.152.183.657 1.07 1.115 1.94.473.871.962 1.788 1.1 2.001l.229.428 1.207-.52c.657-.29 1.497-.656 1.848-.84a10.618 10.618 0 0 1 3.285-.947l1.038-.137-.87-.55c-1.07-.672-1.68-1.207-2.49-2.2-.993-1.237-2.2-2.612-2.261-2.597-.046 0-.688.458-1.421.993zm-63.245 1.238c-.916 1.267-2.001 2.917-2.001 3.07-.015.122.244.245.901.474.947.32 3.147.947 3.33.947.046 0 .153-.138.215-.321.122-.336 1.038-1.94 1.512-2.643.443-.657.443-.626 0-.748-.504-.138-2.628-.963-3.132-1.207l-.366-.184-.459.612zm52.261-.459c-.412.214-2.643 1.1-3.147 1.238-.275.076-.397.152-.351.229.046.076.198.305.336.52.489.687 1.39 2.306 1.512 2.642.061.183.168.32.214.32.184 0 2.383-.626 3.33-.946.642-.214.917-.367.902-.459-.015-.183-.963-1.665-1.635-2.566-.962-1.283-.825-1.176-1.16-.978zm-59.685 2.475c-.306.504-.596 1.024-.626 1.13-.046.107-.352.703-.703 1.33s-.627 1.176-.627 1.222c0 .045.062.107.138.137.061.03.657.275 1.329.55.657.275 1.589.657 2.047.856.458.198.978.366 1.13.397.306.015.306.015.825-1.39.29-.78.688-1.742.887-2.14l.366-.717-.978-.489a37.392 37.392 0 0 1-2.062-1.161c-.596-.367-1.1-.672-1.13-.672-.03 0-.306.428-.596.947zm66.147-.275c-.58.367-1.497.886-2.032 1.161l-.977.489.366.718c.199.397.596 1.36.886 2.139.504 1.405.504 1.405.825 1.39.168-.016.688-.184 1.13-.397.459-.199 1.39-.58 2.048-.856.657-.275 1.268-.52 1.329-.55.061-.03.122-.092.122-.137 0-.046-.275-.596-.626-1.222s-.657-1.207-.703-1.33c-.137-.336-1.176-2.062-1.253-2.062-.03 0-.534.306-1.115.657zM5.026 60.625c-1.13.412-1.436.748-2.001 2.26-.275.734-.596 3.346-.459 3.728.046.107.596.718 1.207 1.36 1.13 1.16 1.222 1.207 2.735 1.91.458.213.489.213 1.16.06.367-.106.856-.275 1.085-.412.505-.306 2.093-1.894 2.46-2.49.382-.611 2.23-4.201 2.184-4.232-.106-.107-3.94-1.756-4.49-1.94-.719-.229-2.048-.428-2.858-.428-.29 0-.748.092-1.023.184zm15.674.779a14.71 14.71 0 0 0-.566 1.329c-.045.183-.229.718-.397 1.161-.168.443-.305.81-.305.825 0 .092 4.155 1.329 4.46 1.329.016 0 .062-.107.092-.23.092-.366.749-2.062 1.192-3.054.214-.505.397-.948.366-.978-.03-.03-.55-.183-1.145-.336a49.53 49.53 0 0 1-2.14-.657c-.58-.183-1.053-.352-1.068-.352-.016 0-.245.444-.49.963zm57.057-.611c-.55.183-1.497.489-2.092.641-.596.169-1.116.306-1.146.337s.137.473.366.977c.459.993 1.1 2.689 1.192 3.056.03.137.076.229.092.229.305 0 4.46-1.238 4.46-1.33 0-.015-.137-.381-.305-.824-.168-.443-.352-.963-.397-1.161-.123-.428-1.009-2.307-1.1-2.292-.046.015-.52.184-1.07.367zm14.605-.214c-.474.076-1.1.214-1.406.336-.52.183-4.216 1.803-4.292 1.88-.046.045 1.802 3.62 2.184 4.23.367.596 1.94 2.185 2.46 2.49.214.138.718.306 1.084.413.672.168.688.168 1.161-.06 1.513-.688 1.59-.75 2.735-1.91.626-.627 1.176-1.238 1.207-1.36s.015-.84-.061-1.62c-.153-1.527-.367-2.276-.963-3.314-.275-.49-.397-.58-.978-.856-.81-.367-1.802-.443-3.131-.229zm-66.59 1.818c-.107.275-.26.626-.352.794-.153.275-.886 2.2-1.039 2.735-.046.183-.015.229.275.275.657.107 2.551.244 3.407.244h.87l.062-.382c.046-.198.29-1.054.565-1.894.275-.84.489-1.574.489-1.635 0-.045-.168-.107-.367-.107-.336 0-2.23-.26-3.345-.458-.367-.046-.382-.046-.566.428zm47.815-.413c-.076.077-2.796.459-3.223.459-.214 0-.382.046-.382.107 0 .06.214.794.489 1.634.274.84.534 1.696.565 1.895l.06.381h.872c.84 0 2.734-.137 3.406-.244.275-.046.321-.092.275-.275-.137-.458-.977-2.643-1.1-2.826-.076-.107-.198-.413-.305-.688-.138-.366-.214-.473-.397-.473-.123-.015-.245 0-.26.03zm-59.93 1.299c-.107.168-.504.947-.886 1.71-.978 1.941-1.39 2.583-2.322 3.545-.443.458-.779.856-.748.886.03.015.534 0 1.145-.061 1.299-.138 1.895-.076 4.43.458 1.009.199 1.88.352 1.956.321.076-.015.336-.84.596-1.787.275-.963.595-2.093.733-2.506.137-.427.244-.779.244-.81 0-.03-.183-.106-.412-.167-.23-.077-.84-.306-1.33-.535-.503-.214-1.435-.611-2.077-.87l-1.16-.49-.169.306zm72.228-.183c-1.635.702-4.171 1.741-4.385 1.802-.168.046-.275.107-.275.122 0 .031.107.398.245.825.137.428.458 1.543.733 2.506.26.947.535 1.772.596 1.787.076.03.947-.122 1.955-.32 2.536-.52 3.132-.581 4.43-.459.596.061 1.115.076 1.146.061.03-.03-.306-.428-.749-.886-.962-1.008-1.283-1.497-2.26-3.452-1.116-2.2-1.07-2.14-1.436-1.986zm-66.927 2.872c-.137.458-.32 1.084-.397 1.39s-.29 1.084-.489 1.726c-.305 1.039-.32 1.176-.183 1.222.091.03.596.122 1.115.214.52.076 1.42.244 2.001.351.58.107 1.268.214 1.528.245.535.06.504.153.687-1.497.107-.84.382-2.353.566-2.964.045-.137-.138-.214-.887-.382-.733-.168-2.78-.81-3.559-1.085-.061-.045-.214.26-.382.78zm60.419-.367c-.718.244-1.711.535-2.23.657-.78.183-.948.244-.902.397.183.611.458 2.123.565 2.964.184 1.65.138 1.558.688 1.497.26-.03.947-.138 1.527-.245.58-.107 1.482-.275 2.002-.351.519-.092 1.023-.183 1.115-.214.137-.046.122-.183-.184-1.222-.183-.642-.412-1.42-.488-1.726-.23-.917-.657-2.2-.734-2.2-.046 0-.657.199-1.36.443zm-55.24 1.36c-.245.9-.733 4.109-.642 4.2.077.077 2.643.306 3.606.306l1.008.015.122-1.038c.168-1.314.183-1.452.397-2.536.107-.504.168-.932.153-.963s-.718-.091-1.558-.137-1.864-.107-2.261-.138l-.733-.076-.092.367zm50.916-.29c-.381.03-1.39.106-2.23.137s-1.543.107-1.558.137.046.459.153.963c.214 1.084.244 1.207.397 2.536l.122 1.038 1.008-.015c.978 0 3.53-.214 3.606-.305.106-.123-.55-4.186-.734-4.461-.046-.061-.336-.077-.764-.03zm-42.59.045c-.138.015-.917.092-1.757.168l-1.513.122-.122.703a56.359 56.359 0 0 0-.489 3.208l-.076.596.596-.076c.687-.077 2.2-.306 3.208-.49l.703-.121.106-1.36c.062-.749.138-1.68.184-2.093l.076-.718-.336.015c-.183 0-.443.03-.58.046zm34.265.642c.046.412.137 1.36.183 2.093l.107 1.36.703.121c.993.184 2.505.413 3.208.49l.596.076-.077-.596c-.076-.688-.305-2.2-.489-3.208l-.122-.703-1.36-.107c-.748-.06-1.68-.153-2.092-.183l-.734-.077.077.734zM10.724 69.76c-.397.046-.962.138-1.253.199-.656.153-1.863.932-2 1.283-.169.443-.49 2.001-.49 2.383 0 .32.184 1.818.367 2.826.046.306.183.428 1.405 1.222 1.1.718 1.498.917 2.17 1.1 1.405.382 1.68.382 2.413-.03.78-.443 1.116-.795 1.803-1.88a9.484 9.484 0 0 0 1.192-2.81c.076-.306.305-1.207.504-2.001.214-.81.382-1.452.366-1.467-.015-.015-.993-.199-2.184-.428-2.399-.427-3.224-.504-4.293-.397zm76.765-.03c-.337.045-4.599.855-4.63.886-.015.015.154.657.367 1.466.214.795.443 1.696.505 2.001.213.902.595 1.803 1.13 2.704.672 1.116 1.07 1.528 1.848 1.971.749.412 1.009.412 2.414.03.672-.183 1.07-.381 2.17-1.1 1.206-.794 1.359-.916 1.405-1.221.168-1.009.366-2.506.366-2.827 0-.382-.32-1.94-.488-2.383-.046-.153-.398-.458-.78-.718-.519-.336-.855-.489-1.435-.596-.81-.168-2.384-.29-2.872-.213zm-51.696.733c-.795.275-1.62.504-1.833.55l-.398.076v.856c0 .855.138 2.75.245 3.406.046.275.092.321.275.275.52-.152 2.46-.886 2.734-1.038.168-.092.52-.245.795-.352.489-.183.489-.183.427-.55-.198-1.115-.458-3.025-.458-3.345 0-.29-.046-.367-.168-.367-.107.015-.825.23-1.62.489zm26.657-.122c0 .336-.26 2.23-.458 3.345-.061.367-.061.367.428.55.275.107.626.26.794.352.275.152 2.2.886 2.735 1.038.183.046.229.016.275-.275.107-.657.244-2.55.244-3.406v-.871l-.367-.061a29.897 29.897 0 0 1-1.91-.565c-.84-.275-1.573-.49-1.634-.49-.046.016-.107.184-.107.383zm-44.882.565c-.046.122-.275 1.008-.504 1.97-.626 2.445-.81 2.903-1.528 4.08l-.626 1.023.52-.168c.29-.077.824-.26 1.206-.397.611-.214.917-.245 3.117-.336 1.329-.046 2.535-.107 2.642-.107.26 0 .306-.336.398-2.857.03-.947.106-1.894.137-2.123l.076-.428-.458-.061c-.687-.092-1.39-.214-2.964-.49a82.535 82.535 0 0 1-1.665-.305c-.229-.015-.305.016-.351.199zm64.253-.122c-1.436.26-3.926.687-4.323.748l-.459.061.077.428c.046.23.107 1.176.137 2.124.092 2.535.138 2.856.397 2.856.107 0 1.299.046 2.643.107 2.2.077 2.506.107 3.117.336.382.138.916.321 1.207.397l.519.168-.626-1.023c-.718-1.161-.886-1.65-1.528-4.079-.565-2.215-.565-2.2-.642-2.2-.045-.015-.275.016-.519.077zm-49.71.595c-1.084.214-1.207.245-2.536.398l-1.038.122.015 1.008c0 .978.214 3.544.305 3.605.107.092 3.254-.397 4.217-.641l.351-.107-.122-1.222a24.819 24.819 0 0 1-.138-2.261c-.015-.565-.046-1.039-.076-1.07-.046 0-.474.077-.978.168zm34.815-.076c-.015.076-.06.78-.107 1.574a146.8 146.8 0 0 1-.137 2.184l-.076.733.35.092c.948.244 4.095.733 4.202.642.076-.077.305-2.643.305-3.606l.016-1.008-1.07-.137c-1.405-.168-1.206-.138-3.269-.55-.091-.03-.198.015-.214.076zm-43.538.367c-.03.046-.107.977-.168 2.077-.06 1.1-.122 2.277-.137 2.613l-.046.626.565-.046c.306-.015 1.497-.076 2.628-.137 1.13-.061 2.077-.138 2.123-.184s.015-.657-.076-1.375a27.104 27.104 0 0 1-.138-2.337v-1.023h-1.008c-.886 0-2.23-.107-3.33-.245-.184-.046-.382-.03-.413.03zm51.818.06c-.626.077-1.634.138-2.23.138l-1.085.016v1.023c0 .565-.076 1.62-.137 2.337-.077.718-.107 1.33-.077 1.375s.993.123 2.124.184c1.13.06 2.322.122 2.627.137l.566.046-.046-.565c-.016-.306-.077-1.497-.138-2.613-.046-1.13-.137-2.092-.168-2.138-.03-.046-.107-.077-.168-.077-.076 0-.641.061-1.268.138zm-33.47.78c-.78.52-2.384 1.451-2.735 1.573-.183.062-.32.168-.32.214 0 .459 1.19 4.217 1.359 4.262.107.031 1.451-.855 3.147-2.062l.61-.428-.183-.366c-.244-.49-1.206-2.994-1.206-3.147-.031-.367-.184-.382-.673-.046zm15.902.061c-.137.504-.962 2.628-1.207 3.132l-.183.366.611.428c1.696 1.207 3.055 2.093 3.147 2.062.168-.045 1.36-3.803 1.36-4.262 0-.046-.138-.152-.321-.214-.336-.122-1.94-1.038-2.643-1.512-.657-.443-.642-.443-.764 0zm-11.29 1.818c-.549.565-1.206 1.176-1.48 1.39-.276.199-.49.397-.49.443 0 .26 2.078 3.896 2.215 3.896.107 0 1.803-1.772 2.552-2.643l.565-.688-.199-.214c-.107-.122-.596-.81-1.07-1.527l-.977-1.482c-.092-.183-.198-.092-1.115.825zm6.112-.749c-.52.856-1.528 2.353-1.834 2.72l-.336.427.565.673c.764.916 2.414 2.642 2.536 2.642.153 0 2.23-3.62 2.23-3.88 0-.046-.183-.229-.427-.412-.244-.184-.917-.81-1.512-1.39l-1.07-1.07-.152.29zm-15.231 1.238c-.443.214-1.344.565-2.001.81-.657.244-1.207.442-1.238.458-.091.076 1.207 4.46 1.314 4.46.015 0 .382-.137.825-.305a45.97 45.97 0 0 1 1.39-.504c.443-.153 1.849-.795 2.047-.947.015-.016-.137-.49-.32-1.07-.321-.916-.49-1.466-.856-2.933-.046-.198-.153-.366-.214-.366-.092.015-.504.183-.947.397zm24.442-.03c-.382 1.466-.534 2-.855 2.932-.184.58-.336 1.054-.321 1.07.199.152 1.604.794 2.047.947.32.107.947.336 1.39.504.443.168.81.305.825.305.107 0 1.406-4.4 1.314-4.46-.015-.016-.565-.214-1.238-.459-.656-.244-1.588-.61-2.031-.824-.459-.214-.886-.382-.932-.382-.061 0-.153.168-.199.366zm-29.01 1.557c-.412.107-1.298.26-1.955.337-2.032.244-1.849.183-1.803.733.03.26.138.947.245 1.527.107.58.275 1.482.35 2.002.093.52.184 1.023.215 1.115.046.137.183.122 1.222-.183.642-.184 1.42-.413 1.726-.49 1.176-.29 2.23-.656 2.185-.778-.275-.78-.917-2.827-1.085-3.56-.122-.504-.244-.916-.275-.916-.046.015-.412.106-.825.213zm33.624.703c-.168.733-.81 2.78-1.085 3.56-.046.122 1.008.488 2.185.779.305.076 1.084.29 1.726.489 1.039.305 1.176.32 1.222.183.03-.092.122-.596.214-1.115.076-.52.244-1.421.351-2.002.107-.58.214-1.268.245-1.527.06-.535.152-.504-1.497-.688-.84-.107-2.353-.382-2.964-.565-.153-.03-.23.138-.397.886zm-22.946-.214c-.275.214-1.084.795-1.802 1.268-.718.49-1.314.871-1.33.886-.076.061 1.91 3.667 2.231 4.049.107.106 3.758-2.506 3.758-2.674 0-.046-.244-.458-.52-.916-.29-.474-.778-1.33-1.084-1.895-.305-.58-.596-1.07-.657-1.07-.046-.03-.305.138-.596.352zm12.634-.29c-.061.076-.29.504-.504.947-.23.458-.687 1.268-1.024 1.803s-.595 1.008-.595 1.054c0 .183 3.666 2.795 3.758 2.673.336-.382 2.322-3.987 2.23-4.048a38.024 38.024 0 0 0-1.085-.703 42.1 42.1 0 0 1-1.604-1.1c-.931-.687-1.069-.763-1.176-.626zm-27.971.489c-.214.046-1.161.107-2.108.137-2.536.092-2.857.138-2.857.398 0 .106-.046 1.298-.107 2.642-.076 2.2-.107 2.506-.336 3.117-.138.382-.32.916-.397 1.207l-.168.519 1.023-.626c1.07-.657 1.91-1.009 2.964-1.238.626-.137 3.239-.84 3.284-.87.016-.016-.076-.612-.214-1.33-.137-.718-.305-1.756-.397-2.306-.305-1.88-.229-1.727-.687-1.65zm43.538.382c-.061.458-.183 1.191-.596 3.574a21.088 21.088 0 0 0-.214 1.33c.046.045 2.658.748 3.285.87 1.069.23 1.894.566 2.963 1.238l1.024.626-.168-.52c-.077-.29-.26-.824-.397-1.206-.214-.611-.245-.917-.336-3.117-.046-1.329-.107-2.536-.107-2.642 0-.26-.337-.306-2.857-.398a31.22 31.22 0 0 1-2.124-.137l-.427-.077-.046.459zm-22.182.382c-.305.382-.993 1.13-1.512 1.665l-.947.978.718.87c.382.49 1.084 1.253 1.558 1.727l.856.855.855-.855c.474-.474 1.176-1.238 1.558-1.727l.718-.87-.947-.978c-.52-.535-1.207-1.283-1.512-1.665-.321-.367-.611-.672-.657-.672-.077 0-.367.305-.688.672zm-29.942-.367c-1.817.076-1.879.076-3.116.489-1.482.489-2.001.794-2.612 1.528l-.459.534.016 1.253c0 1.36-.016 1.268.81 3.391l.35.917.917.351c2.124.825 2.032.81 3.392.81l1.268.015.58-.504c.749-.642.947-.993 1.451-2.551l.413-1.253.092-2.2c.045-1.206.076-2.352.091-2.536v-.32l-.672.015c-.367 0-1.497.015-2.52.061zm57.99.23c.015.183.046 1.328.092 2.535l.091 2.2.413 1.253c.504 1.558.718 1.91 1.451 2.55l.58.505 1.269-.015c1.36 0 1.268.015 3.39-.81l.918-.351.35-.917c.826-2.123.81-2.032.81-3.391l.016-1.253-.458-.535c-.612-.733-1.13-1.039-2.613-1.512l-1.252-.413-2.2-.091c-3.193-.107-2.857-.138-2.857.244zm-38.375 1.848c-.381.198-1.329.595-2.108.886-1.405.504-1.405.504-1.39.825.015.168.183.687.397 1.13.199.458.58 1.39.856 2.047.275.657.52 1.268.55 1.33.03.076.091.137.137.137.046 0 .596-.275 1.222-.627s1.207-.657 1.33-.702c.26-.107 2.062-1.177 2.062-1.222 0-.031-.306-.535-.672-1.13a32.52 32.52 0 0 1-1.161-2.063c-.275-.535-.49-.978-.505-.978 0 0-.32.168-.718.367zm20.73.595a37.392 37.392 0 0 1-1.16 2.063c-.367.596-.672 1.1-.672 1.13 0 .046 1.802 1.13 2.062 1.222.107.046.703.352 1.329.703s1.176.626 1.222.626c.046 0 .107-.06.137-.137.031-.061.275-.657.55-1.33.275-.656.657-1.588.856-2.046.199-.458.367-.978.397-1.13.015-.306.015-.306-1.39-.826-.78-.29-1.742-.687-2.123-.886l-.734-.366-.473.977zm-13.855 1.1c-.306.245-1.13.84-1.849 1.314-.718.474-1.329.87-1.344.886-.046.046.55.978 1.238 1.91.336.458.855 1.176 1.176 1.634.336.459.626.81.672.795.122-.046 2.26-1.94 3.132-2.796l.779-.748-.978-1.009c-.535-.55-1.237-1.329-1.558-1.741-.321-.397-.611-.718-.657-.718-.03.015-.306.229-.611.473zm6.966.26a38.18 38.18 0 0 1-1.558 1.742l-.978 1.008.78.748c.885.84 3.009 2.735 3.13 2.796.047.015.413-.428.81-1.008l1.192-1.635c.535-.703 1.146-1.65 1.1-1.696-.015-.015-.535-.35-1.146-.748-.596-.397-1.451-.978-1.863-1.33-.428-.335-.795-.595-.81-.595-.046 0-.336.336-.657.718zm-18.76-.061c-.381.137-1.481.458-2.444.718-.947.26-1.772.535-1.787.596-.03.076.122.947.32 1.955.505 2.52.581 3.147.459 4.384-.046.581-.107 1.116-.107 1.192s.367-.214.84-.657c.993-.978 1.589-1.375 3.56-2.368a76.31 76.31 0 0 0 1.802-.932l.306-.183-.703-1.65c-.382-.916-.84-2.032-1.008-2.475-.168-.458-.352-.824-.413-.824-.076 0-.427.122-.825.244zm30.6.58c-.169.459-.627 1.559-1.009 2.475L63 86.167l.29.183c.169.092.978.52 1.818.948 2.002 1.008 2.552 1.39 3.56 2.352.458.443.825.749.825.657s-.046-.611-.107-1.192c-.138-1.237-.061-1.863.458-4.384.199-1.008.352-1.879.321-1.955-.015-.077-.84-.336-1.787-.596-.963-.275-2.093-.596-2.506-.733-.427-.138-.779-.245-.81-.245s-.183.367-.35.84zm-36.114.978c-.382.107-1.314.352-2.063.535-1.71.428-2.352.687-3.406 1.344-1.07.657-1.436 1.008-1.864 1.772-.397.718-.413.978-.138 2.063.275 1.1.382 1.329 1.299 2.673.718 1.07.855 1.222 1.13 1.268 1.009.168 2.506.367 2.827.367.366 0 1.94-.321 2.383-.49.137-.045.458-.396.718-.778.565-.825.779-1.742.81-3.346.015-.886-.047-1.42-.428-3.346-.245-1.252-.474-2.276-.505-2.26-.045 0-.366.091-.763.198zm41.582 2.062c-.382 1.925-.458 2.445-.427 3.346.015 1.604.244 2.52.81 3.346.259.382.564.733.717.779.443.168 2.017.489 2.383.489.321 0 1.818-.184 2.826-.367.29-.046.428-.199 1.207-1.39.734-1.1.917-1.482 1.115-2.185.382-1.42.382-1.68-.03-2.413-.443-.78-.794-1.116-1.88-1.803a9.484 9.484 0 0 0-2.81-1.192l-2.001-.504c-.795-.214-1.451-.397-1.451-.397s-.214 1.039-.459 2.291zm-28.246-1.13c-.168.138-1.024.626-1.91 1.1-2.55 1.36-2.444 1.283-2.322 1.573.062.138.459 1.04.886 2.002.963 2.2 1.161 2.81 1.314 4.094l.138 1.039.55-.886c.626-1.009 1.481-1.895 3.01-3.147.58-.49 1.237-1.024 1.45-1.207l.398-.336-.749-1.04c-.412-.58-.993-1.39-1.298-1.802a19.39 19.39 0 0 1-.81-1.176c-.138-.245-.26-.428-.29-.428s-.199.092-.367.214zm15.52.199c-.137.229-.488.763-.809 1.176a143.04 143.04 0 0 0-1.298 1.803l-.749 1.038.397.336c.214.184.856.734 1.452 1.207 1.527 1.253 2.383 2.154 3.01 3.147l.55.886.137-1.039c.137-1.13.473-2.245.977-3.345.184-.397.55-1.222.825-1.849l.504-1.16-.427-.23c-.214-.137-1.13-.626-2.002-1.1-.87-.458-1.741-.947-1.91-1.1-.182-.137-.335-.244-.366-.244s-.168.23-.29.474zm-7.805.794c-.153.183-.78.749-1.39 1.268s-1.36 1.207-1.68 1.512l-.581.55 1.206 1.604c1.528 2.002 2.002 2.765 2.414 3.926.183.504.367.932.397.932s.214-.428.397-.932c.428-1.206.84-1.879 2.368-3.88l1.253-1.65-.58-.55c-.306-.305-1.07-.977-1.68-1.512s-1.238-1.1-1.391-1.268c-.168-.183-.336-.336-.367-.336s-.214.153-.366.336zm-14.376 2.643c-2.429 1.268-2.55 1.36-3.62 2.383-1.039 1.008-1.33 1.451-1.558 2.383-.168.672-.168.688.06 1.161.688 1.512.75 1.589 1.91 2.735.627.626 1.238 1.176 1.36 1.206s.84.016 1.62-.06c1.527-.153 2.275-.367 3.314-.963.49-.275.58-.397.84-.962.169-.352.321-.856.352-1.131.076-.687-.153-2.505-.428-3.284-.275-.81-1.864-4.43-1.94-4.43-.03 0-.886.442-1.91.962zm26.688.916c-1.069 2.445-1.252 2.98-1.405 4.278-.168 1.298-.107 1.864.275 2.704.26.565.367.687.84.962 1.039.596 1.803.81 3.315.963.78.076 1.513.107 1.62.06.106-.045.718-.595 1.36-1.206 1.16-1.13 1.206-1.222 1.909-2.735.214-.458.214-.488.06-1.16-.106-.367-.274-.856-.412-1.085-.305-.504-1.894-2.093-2.49-2.46-.443-.275-4.124-2.2-4.2-2.2-.031 0-.413.84-.872 1.88zM44.394 89.59c-2.2 1.849-2.552 2.2-3.209 3.147-.855 1.268-1.1 1.803-1.176 2.765-.06.78-.046.81.275 1.299.58.886 1.558 1.756 2.75 2.444.596.366 1.191.672 1.329.687.122.016.855-.168 1.635-.427 1.45-.49 2.031-.81 2.963-1.635.428-.367.489-.504.611-1.054.199-.978.168-1.33-.305-2.689-.336-.978-.566-1.466-1.04-2.123-.625-.917-2.061-2.857-2.397-3.254l-.2-.23-1.236 1.07zm9.165 0a27.952 27.952 0 0 1-1.13 1.482 9.743 9.743 0 0 0-1.528 2.582c-.626 1.665-.687 2.077-.458 3.162.122.55.183.687.611 1.054.932.84 1.512 1.16 2.964 1.635.779.26 1.512.458 1.634.427.138-.015.718-.336 1.33-.687 1.176-.688 2.169-1.558 2.75-2.444.32-.49.335-.52.274-1.299-.046-.504-.153-.978-.305-1.314-.275-.595-1.116-1.863-1.59-2.413-.259-.29-2.23-2.002-3.497-3.025l-.275-.23-.78 1.07z
" fill-opacity="1"></path>
</g>
</g>
        </g>
</g>
</g><g>
    <rect fill="transparent" transform="matrix(0.8458646677193941 0 0 0.8458646677193941 39.63721799052545 95.29135332280606)" x="1.6111111640930176" y="-5.583333492279053" width="118.22222137451172" height="16.38888931274414" stroke="none" vector-effect="non-scaling-stroke"></rect>
    <g transform="matrix(0.8458646677193941 0 0 0.8458646677193941 39.63721799052545 95.29135332280606)">
    
    
    <path fill="#33A6FA" fill-opacity="1" d="M10.388888888888888,5.416666666666663C10,6.027777777777775,9.444444444444443,6.472222222222219,8.777777777777777,6.805555555555553C8.11111111111111,7.138888888888886,7.333333333333333,7.361111111111108,6.388888888888888,7.361111111111108C5.666666666666666,7.361111111111108,5.055555555555555,7.2499999999999964,4.444444444444444,7.027777777777775C3.833333333333333,6.805555555555553,3.3888888888888884,6.472222222222219,2.9444444444444438,6.027777777777775C2.4999999999999996,5.58333333333333,2.166666666666666,5.08333333333333,1.944444444444444,4.527777777777775C1.7222222222222219,3.972222222222219,1.6111111111111107,3.3055555555555527,1.6111111111111107,2.5833333333333304C1.6111111111111107,1.9166666666666634,1.7222222222222219,1.3055555555555527,1.944444444444444,0.694444444444442C2.166666666666666,0.08333333333333037,2.4444444444444438,-0.4166666666666696,2.833333333333333,-0.8611111111111143C3.2222222222222214,-1.305555555555559,3.7777777777777772,-1.5833333333333357,4.333333333333332,-1.805555555555559C4.888888888888888,-2.0277777777777803,5.5,-2.1944444444444464,6.222222222222221,-2.1944444444444464C6.499999999999999,-2.1944444444444464,6.833333333333333,-2.138888888888891,7.111111111111111,-2.0833333333333357C7.388888888888888,-2.0277777777777803,7.666666666666666,-1.9166666666666696,7.944444444444444,-1.805555555555559C8.222222222222221,-1.6944444444444464,8.38888888888889,-1.472222222222225,8.61111111111111,-1.305555555555559C8.833333333333332,-1.138888888888891,9,-0.9166666666666696,9.11111111111111,-0.638888888888892C9.11111111111111,-0.638888888888892,9.11111111111111,-1.972222222222225,9.11111111111111,-1.972222222222225C9.11111111111111,-1.972222222222225,10.277777777777777,-1.972222222222225,10.277777777777777,-1.972222222222225C10.277777777777777,-1.972222222222225,10.277777777777777,1.694444444444442,10.277777777777777,1.694444444444442C10.277777777777777,1.694444444444442,9.11111111111111,1.694444444444442,9.11111111111111,1.694444444444442C9.11111111111111,1.3055555555555527,9.055555555555554,0.9166666666666643,8.88888888888889,0.5833333333333304C8.722222222222221,0.24999999999999734,8.555555555555554,-0.0833333333333357,8.277777777777777,-0.305555555555558C7.999999999999999,-0.5277777777777803,7.722222222222221,-0.7500000000000027,7.388888888888888,-0.8611111111111143C7.0555555555555545,-0.972222222222225,6.611111111111111,-1.0277777777777803,6.222222222222221,-1.0277777777777803C5.666666666666666,-1.0277777777777803,5.166666666666666,-0.9166666666666696,4.777777777777777,-0.7500000000000027C4.388888888888888,-0.5833333333333357,4.055555555555555,-0.305555555555558,3.7777777777777772,0.027777777777775015C3.4999999999999996,0.36111111111110805,3.333333333333333,0.694444444444442,3.166666666666666,1.1388888888888857C2.9999999999999996,1.5833333333333304,2.9444444444444438,2.0833333333333304,2.9444444444444438,2.5833333333333304C2.9444444444444438,3.0833333333333304,2.9999999999999996,3.5833333333333304,3.166666666666666,4.027777777777775C3.333333333333333,4.47222222222222,3.6111111111111107,4.861111111111108,3.8888888888888884,5.194444444444441C4.166666666666666,5.527777777777775,4.555555555555555,5.7499999999999964,5,5.916666666666663C5.444444444444444,6.08333333333333,5.833333333333333,6.194444444444441,6.388888888888888,6.194444444444441C7.0555555555555545,6.194444444444441,7.722222222222221,6.08333333333333,8.222222222222221,5.805555555555553C8.722222222222221,5.527777777777775,9.166666666666666,5.194444444444441,9.444444444444443,4.7499999999999964C9.444444444444443,4.7499999999999964,10.388888888888888,5.416666666666663,10.388888888888888,5.416666666666663M21.83333333333333,2.6388888888888857C21.83333333333333,3.361111111111108,21.722222222222218,3.972222222222219,21.499999999999996,4.527777777777775C21.27777777777777,5.08333333333333,20.999999999999996,5.638888888888886,20.55555555555555,6.027777777777775C20.111111111111107,6.416666666666663,19.611111111111107,6.805555555555553,18.999999999999996,7.027777777777775C18.388888888888886,7.2499999999999964,17.777777777777775,7.361111111111108,17.05555555555555,7.361111111111108C16.33333333333333,7.361111111111108,15.722222222222218,7.2499999999999964,15.111111111111107,7.027777777777775C14.499999999999996,6.805555555555553,14.055555555555552,6.416666666666663,13.611111111111107,6.027777777777775C13.166666666666663,5.638888888888886,12.888888888888886,5.08333333333333,12.666666666666663,4.527777777777775C12.444444444444441,3.972222222222219,12.277777777777775,3.361111111111108,12.277777777777775,2.6388888888888857C12.277777777777775,1.9722222222222197,12.444444444444441,1.3055555555555527,12.666666666666663,0.694444444444442C12.888888888888886,0.08333333333333037,13.166666666666663,-0.4166666666666696,13.611111111111107,-0.8611111111111143C14.055555555555552,-1.305555555555559,14.499999999999996,-1.5833333333333357,15.111111111111107,-1.805555555555559C15.722222222222218,-2.0277777777777803,16.33333333333333,-2.1944444444444464,17.05555555555555,-2.1944444444444464C17.777777777777775,-2.1944444444444464,18.388888888888886,-2.0277777777777803,18.999999999999996,-1.805555555555559C19.611111111111107,-1.5833333333333357,20.111111111111107,-1.305555555555559,20.55555555555555,-0.8611111111111143C20.999999999999996,-0.4166666666666696,21.27777777777777,0.08333333333333037,21.499999999999996,0.694444444444442C21.722222222222218,1.3055555555555527,21.83333333333333,1.9722222222222197,21.83333333333333,2.6388888888888857C21.83333333333333,2.6388888888888857,21.83333333333333,2.6388888888888857,21.83333333333333,2.6388888888888857M20.499999999999996,2.6388888888888857C20.499999999999996,2.1388888888888857,20.44444444444444,1.6388888888888857,20.277777777777775,1.194444444444442C20.111111111111107,0.7499999999999973,19.888888888888886,0.36111111111110805,19.611111111111107,0.027777777777775015C19.33333333333333,-0.305555555555558,18.94444444444444,-0.5833333333333357,18.499999999999996,-0.7500000000000027C18.05555555555555,-0.9166666666666696,17.611111111111107,-1.0277777777777803,17.05555555555555,-1.0277777777777803C16.499999999999996,-1.0277777777777803,16.05555555555555,-0.9166666666666696,15.611111111111107,-0.7500000000000027C15.166666666666663,-0.5833333333333357,14.833333333333329,-0.305555555555558,14.555555555555552,0.027777777777775015C14.277777777777775,0.36111111111110805,14.055555555555552,0.7499999999999973,13.888888888888886,1.194444444444442C13.722222222222218,1.6388888888888857,13.666666666666663,2.1388888888888857,13.666666666666663,2.6388888888888857C13.666666666666663,3.1388888888888857,13.722222222222218,3.6388888888888857,13.888888888888886,4.08333333333333C14.055555555555552,4.527777777777775,14.277777777777775,4.861111111111108,14.555555555555552,5.194444444444441C14.833333333333329,5.527777777777775,15.166666666666663,5.805555555555553,15.611111111111107,5.97222222222222C16.05555555555555,6.138888888888886,16.499999999999996,6.194444444444441,17.05555555555555,6.194444444444441C17.611111111111107,6.194444444444441,18.05555555555555,6.138888888888886,18.499999999999996,5.97222222222222C18.94444444444444,5.805555555555553,19.33333333333333,5.527777777777775,19.611111111111107,5.194444444444441C19.888888888888886,4.861111111111108,20.111111111111107,4.527777777777775,20.277777777777775,4.08333333333333C20.44444444444444,3.6388888888888857,20.499999999999996,3.1388888888888857,20.499999999999996,2.6388888888888857C20.499999999999996,2.6388888888888857,20.499999999999996,2.6388888888888857,20.499999999999996,2.6388888888888857M32.5,7.138888888888886C32.5,7.138888888888886,31.166666666666664,7.138888888888886,31.166666666666664,7.138888888888886C31.166666666666664,7.138888888888886,31.166666666666664,0.5833333333333304,31.166666666666664,0.5833333333333304C31.166666666666664,0.08333333333333037,31.05555555555555,-0.36111111111111427,30.888888888888886,-0.638888888888892C30.722222222222218,-0.9166666666666696,30.444444444444443,-1.0277777777777803,30.111111111111107,-1.0277777777777803C29.611111111111107,-1.0277777777777803,29.166666666666664,-0.805555555555558,28.944444444444443,-0.25000000000000266C28.722222222222218,0.3055555555555527,28.611111111111107,1.0833333333333304,28.611111111111107,2.027777777777775C28.611111111111107,2.027777777777775,28.611111111111107,7.138888888888886,28.611111111111107,7.138888888888886C28.611111111111107,7.138888888888886,27.277777777777775,7.138888888888886,27.277777777777775,7.138888888888886C27.277777777777775,7.138888888888886,27.277777777777775,0.5833333333333304,27.277777777777775,0.5833333333333304C27.277777777777775,0.08333333333333037,27.166666666666664,-0.36111111111111427,26.999999999999996,-0.638888888888892C26.83333333333333,-0.9166666666666696,26.499999999999996,-1.0277777777777803,26.166666666666664,-1.0277777777777803C25.83333333333333,-1.0277777777777803,25.611111111111107,-0.9166666666666696,25.444444444444443,-0.7500000000000027C25.277777777777775,-0.5833333333333357,25.111111111111107,-0.305555555555558,24.999999999999996,-0.027777777777780344C24.888888888888886,0.24999999999999734,24.83333333333333,0.5833333333333304,24.777777777777775,0.9166666666666643C24.722222222222218,1.2499999999999973,24.722222222222218,1.694444444444442,24.722222222222218,2.027777777777775C24.722222222222218,2.027777777777775,24.722222222222218,7.138888888888886,24.722222222222218,7.138888888888886C24.722222222222218,7.138888888888886,23.388888888888886,7.138888888888886,23.388888888888886,7.138888888888886C23.388888888888886,7.138888888888886,23.388888888888886,-1.972222222222225,23.388888888888886,-1.972222222222225C23.388888888888886,-1.972222222222225,24.722222222222218,-1.972222222222225,24.722222222222218,-1.972222222222225C24.722222222222218,-1.972222222222225,24.722222222222218,-0.638888888888892,24.722222222222218,-0.638888888888892C24.999999999999996,-1.638888888888891,25.611111111111107,-2.1944444444444464,26.555555555555554,-2.1944444444444464C27.444444444444443,-2.1944444444444464,28.05555555555555,-1.7500000000000036,28.388888888888886,-0.8611111111111143C28.83333333333333,-1.7500000000000036,29.388888888888886,-2.1944444444444464,30.222222222222218,-2.1944444444444464C30.999999999999996,-2.1944444444444464,31.55555555555555,-1.9166666666666696,31.944444444444443,-1.472222222222225C32.33333333333333,-1.0277777777777803,32.5,-0.36111111111111427,32.5,0.5833333333333304C32.5,0.5833333333333304,32.5,7.138888888888886,32.5,7.138888888888886C32.5,7.138888888888886,32.5,7.138888888888886,32.5,7.138888888888886M43.388888888888886,2.5833333333333304C43.388888888888886,3.3055555555555527,43.27777777777777,3.972222222222219,43.05555555555555,4.527777777777775C42.83333333333333,5.08333333333333,42.49999999999999,5.58333333333333,42.11111111111111,6.027777777777775C41.722222222222214,6.472222222222219,41.222222222222214,6.805555555555553,40.66666666666666,7.027777777777775C40.11111111111111,7.2499999999999964,39.49999999999999,7.361111111111108,38.77777777777777,7.361111111111108C38.27777777777777,7.361111111111108,37.77777777777777,7.2499999999999964,37.33333333333333,7.08333333333333C36.888888888888886,6.916666666666663,36.49999999999999,6.638888888888886,36.11111111111111,6.305555555555553C36.11111111111111,6.305555555555553,36.11111111111111,10.805555555555552,36.11111111111111,10.805555555555552C36.11111111111111,10.805555555555552,34.77777777777777,10.805555555555552,34.77777777777777,10.805555555555552C34.77777777777777,10.805555555555552,34.77777777777777,-1.972222222222225,34.77777777777777,-1.972222222222225C34.77777777777777,-1.972222222222225,36.11111111111111,-1.972222222222225,36.11111111111111,-1.972222222222225C36.11111111111111,-1.972222222222225,36.11111111111111,-1.138888888888891,36.11111111111111,-1.138888888888891C36.944444444444436,-1.8611111111111143,37.83333333333333,-2.1944444444444464,38.77777777777777,-2.1944444444444464C39.49999999999999,-2.1944444444444464,40.11111111111111,-2.0277777777777803,40.66666666666666,-1.805555555555559C41.222222222222214,-1.5833333333333357,41.722222222222214,-1.305555555555559,42.11111111111111,-0.8611111111111143C42.49999999999999,-0.4166666666666696,42.83333333333333,0.08333333333333037,43.05555555555555,0.694444444444442C43.27777777777777,1.3055555555555527,43.388888888888886,1.9166666666666634,43.388888888888886,2.5833333333333304C43.388888888888886,2.5833333333333304,43.388888888888886,2.5833333333333304,43.388888888888886,2.5833333333333304M42.05555555555555,2.5833333333333304C42.05555555555555,2.0833333333333304,41.99999999999999,1.6388888888888857,41.83333333333333,1.194444444444442C41.66666666666666,0.7499999999999973,41.49999999999999,0.36111111111110805,41.222222222222214,0.027777777777775015C40.944444444444436,-0.305555555555558,40.55555555555555,-0.5833333333333357,40.16666666666666,-0.7500000000000027C39.77777777777777,-0.9166666666666696,39.33333333333333,-1.0277777777777803,38.77777777777777,-1.0277777777777803C38.27777777777777,-1.0277777777777803,37.77777777777777,-0.9166666666666696,37.33333333333333,-0.7500000000000027C36.888888888888886,-0.5833333333333357,36.49999999999999,-0.305555555555558,36.11111111111111,0.13888888888888573C36.11111111111111,0.13888888888888573,36.11111111111111,5.027777777777775,36.11111111111111,5.027777777777775C36.49999999999999,5.47222222222222,36.888888888888886,5.805555555555553,37.33333333333333,5.97222222222222C37.77777777777777,6.138888888888886,38.27777777777777,6.194444444444441,38.77777777777777,6.194444444444441C39.33333333333333,6.194444444444441,39.77777777777777,6.08333333333333,40.16666666666666,5.916666666666663C40.55555555555555,5.7499999999999964,40.944444444444436,5.47222222222222,41.222222222222214,5.138888888888886C41.49999999999999,4.805555555555553,41.66666666666666,4.47222222222222,41.83333333333333,4.027777777777775C41.99999999999999,3.5833333333333304,42.05555555555555,3.0833333333333304,42.05555555555555,2.5833333333333304C42.05555555555555,2.5833333333333304,42.05555555555555,2.5833333333333304,42.05555555555555,2.5833333333333304M54.499999999999986,2.6388888888888857C54.499999999999986,3.361111111111108,54.38888888888888,3.972222222222219,54.16666666666666,4.527777777777775C53.944444444444436,5.08333333333333,53.66666666666666,5.638888888888886,53.222222222222214,6.027777777777775C52.77777777777777,6.416666666666663,52.27777777777777,6.805555555555553,51.66666666666666,7.027777777777775C51.05555555555554,7.2499999999999964,50.444444444444436,7.361111111111108,49.722222222222214,7.361111111111108C48.99999999999999,7.361111111111108,48.38888888888888,7.2499999999999964,47.77777777777777,7.027777777777775C47.16666666666666,6.805555555555553,46.722222222222214,6.416666666666663,46.27777777777777,6.027777777777775C45.83333333333332,5.638888888888886,45.55555555555554,5.08333333333333,45.33333333333332,4.527777777777775C45.1111111111111,3.972222222222219,44.944444444444436,3.361111111111108,44.944444444444436,2.6388888888888857C44.944444444444436,1.9722222222222197,45.1111111111111,1.3055555555555527,45.33333333333332,0.694444444444442C45.55555555555554,0.08333333333333037,45.83333333333332,-0.4166666666666696,46.27777777777777,-0.8611111111111143C46.722222222222214,-1.305555555555559,47.16666666666666,-1.5833333333333357,47.77777777777777,-1.805555555555559C48.38888888888888,-2.0277777777777803,48.99999999999999,-2.1944444444444464,49.722222222222214,-2.1944444444444464C50.444444444444436,-2.1944444444444464,51.05555555555554,-2.0277777777777803,51.66666666666666,-1.805555555555559C52.27777777777777,-1.5833333333333357,52.77777777777777,-1.305555555555559,53.222222222222214,-0.8611111111111143C53.66666666666666,-0.4166666666666696,53.944444444444436,0.08333333333333037,54.16666666666666,0.694444444444442C54.38888888888888,1.3055555555555527,54.499999999999986,1.9722222222222197,54.499999999999986,2.6388888888888857C54.499999999999986,2.6388888888888857,54.499999999999986,2.6388888888888857,54.499999999999986,2.6388888888888857M53.16666666666666,2.6388888888888857C53.16666666666666,2.1388888888888857,53.1111111111111,1.6388888888888857,52.944444444444436,1.194444444444442C52.77777777777777,0.7499999999999973,52.55555555555554,0.36111111111110805,52.27777777777777,0.027777777777775015C51.99999999999999,-0.305555555555558,51.6111111111111,-0.5833333333333357,51.16666666666666,-0.7500000000000027C50.722222222222214,-0.9166666666666696,50.27777777777777,-1.0277777777777803,49.722222222222214,-1.0277777777777803C49.16666666666666,-1.0277777777777803,48.722222222222214,-0.9166666666666696,48.27777777777777,-0.7500000000000027C47.83333333333332,-0.5833333333333357,47.49999999999999,-0.305555555555558,47.222222222222214,0.027777777777775015C46.944444444444436,0.36111111111110805,46.722222222222214,0.7499999999999973,46.55555555555554,1.194444444444442C46.38888888888888,1.6388888888888857,46.33333333333332,2.1388888888888857,46.33333333333332,2.6388888888888857C46.33333333333332,3.1388888888888857,46.38888888888888,3.6388888888888857,46.55555555555554,4.08333333333333C46.722222222222214,4.527777777777775,46.944444444444436,4.861111111111108,47.222222222222214,5.194444444444441C47.49999999999999,5.527777777777775,47.83333333333332,5.805555555555553,48.27777777777777,5.97222222222222C48.722222222222214,6.138888888888886,49.16666666666666,6.194444444444441,49.722222222222214,6.194444444444441C50.27777777777777,6.194444444444441,50.722222222222214,6.138888888888886,51.16666666666666,5.97222222222222C51.6111111111111,5.805555555555553,51.99999999999999,5.527777777777775,52.27777777777777,5.194444444444441C52.55555555555554,4.861111111111108,52.77777777777777,4.527777777777775,52.944444444444436,4.08333333333333C53.1111111111111,3.6388888888888857,53.16666666666666,3.1388888888888857,53.16666666666666,2.6388888888888857C53.16666666666666,2.6388888888888857,53.16666666666666,2.6388888888888857,53.16666666666666,2.6388888888888857M64.88888888888889,4.638888888888886C64.88888888888889,5.194444444444441,64.77777777777777,5.638888888888886,64.5,5.97222222222222C64.22222222222223,6.305555555555553,63.94444444444444,6.58333333333333,63.5,6.805555555555553C63.05555555555556,7.027777777777775,62.55555555555556,7.138888888888886,62.05555555555556,7.2499999999999964C61.55555555555556,7.361111111111108,61.05555555555556,7.361111111111108,60.55555555555556,7.361111111111108C59.72222222222222,7.361111111111108,58.94444444444444,7.2499999999999964,58.111111111111114,7.027777777777775C57.27777777777778,6.805555555555553,56.55555555555556,6.416666666666663,55.94444444444444,6.027777777777775C55.94444444444444,6.027777777777775,56.55555555555556,4.916666666666663,56.55555555555556,4.916666666666663C57.22222222222222,5.361111111111108,57.88888888888889,5.638888888888886,58.55555555555556,5.861111111111108C59.22222222222222,6.08333333333333,59.833333333333336,6.194444444444441,60.55555555555556,6.194444444444441C62.55555555555556,6.194444444444441,63.55555555555556,5.694444444444441,63.55555555555556,4.638888888888886C63.55555555555556,4.361111111111108,63.5,4.194444444444441,63.333333333333336,4.027777777777775C63.16666666666667,3.861111111111108,62.94444444444444,3.749999999999997,62.66666666666667,3.6388888888888857C62.38888888888889,3.527777777777775,62.111111111111114,3.472222222222219,61.72222222222222,3.416666666666664C61.72222222222222,3.416666666666664,60.55555555555556,3.249999999999997,60.55555555555556,3.249999999999997C60.05555555555556,3.1944444444444415,59.55555555555556,3.0833333333333304,59.05555555555556,2.9722222222222197C58.55555555555556,2.861111111111108,58.05555555555556,2.7499999999999973,57.66666666666667,2.527777777777775C57.27777777777778,2.3055555555555527,56.94444444444444,2.0833333333333304,56.66666666666667,1.7499999999999973C56.38888888888889,1.4166666666666634,56.27777777777778,1.027777777777775,56.27777777777778,0.47222222222221966C56.27777777777778,0.027777777777775015,56.44444444444444,-0.36111111111111427,56.66666666666667,-0.6944444444444473C56.88888888888889,-1.0277777777777803,57.16666666666667,-1.305555555555559,57.55555555555556,-1.5277777777777803C57.94444444444444,-1.7500000000000036,58.44444444444444,-1.9166666666666696,58.94444444444444,-2.0277777777777803C59.44444444444444,-2.138888888888891,60,-2.1944444444444464,60.55555555555556,-2.1944444444444464C61.333333333333336,-2.1944444444444464,62.111111111111114,-2.0833333333333357,62.72222222222222,-1.9166666666666696C63.333333333333336,-1.7500000000000036,63.88888888888889,-1.4166666666666696,64.38888888888889,-1.0833333333333357C64.38888888888889,-1.0833333333333357,63.88888888888889,-0.0833333333333357,63.88888888888889,-0.0833333333333357C63.38888888888889,-0.472222222222225,62.833333333333336,-0.638888888888892,62.27777777777778,-0.805555555555558C61.72222222222222,-0.972222222222225,61.16666666666667,-1.0277777777777803,60.55555555555556,-1.0277777777777803C60.27777777777778,-1.0277777777777803,59.94444444444444,-1.0277777777777803,59.611111111111114,-0.972222222222225C59.27777777777778,-0.9166666666666696,58.94444444444444,-0.805555555555558,58.66666666666667,-0.6944444444444473C58.38888888888889,-0.5833333333333357,58.16666666666667,-0.4166666666666696,57.94444444444444,-0.25000000000000266C57.72222222222222,-0.0833333333333357,57.611111111111114,0.19444444444444198,57.611111111111114,0.47222222222221966C57.611111111111114,0.7499999999999973,57.72222222222222,0.9166666666666643,57.88888888888889,1.0833333333333304C58.05555555555556,1.2499999999999973,58.27777777777778,1.361111111111108,58.55555555555556,1.4722222222222197C58.833333333333336,1.5833333333333304,59.111111111111114,1.6388888888888857,59.5,1.694444444444442C59.5,1.694444444444442,60.66666666666667,1.861111111111108,60.66666666666667,1.861111111111108C61.16666666666667,1.9166666666666634,61.66666666666667,2.027777777777775,62.16666666666667,2.1388888888888857C62.66666666666667,2.2499999999999973,63.16666666666667,2.4166666666666634,63.55555555555556,2.5833333333333304C63.94444444444444,2.7499999999999973,64.27777777777777,2.9722222222222197,64.55555555555556,3.3055555555555527C64.83333333333333,3.6388888888888857,64.88888888888889,4.08333333333333,64.88888888888889,4.638888888888886C64.88888888888889,4.638888888888886,64.88888888888889,4.638888888888886,64.88888888888889,4.638888888888886M68.27777777777777,3.0833333333333304C68.38888888888889,4.027777777777775,68.72222222222221,4.805555555555553,69.33333333333333,5.361111111111108C69.94444444444444,5.916666666666663,70.77777777777777,6.194444444444441,71.72222222222221,6.194444444444441C72.38888888888889,6.194444444444441,72.94444444444444,6.08333333333333,73.5,5.805555555555553C74.05555555555556,5.527777777777775,74.44444444444444,5.194444444444441,74.72222222222221,4.7499999999999964C74.72222222222221,4.7499999999999964,75.66666666666666,5.416666666666663,75.66666666666666,5.416666666666663C75.22222222222221,6.027777777777775,74.66666666666666,6.527777777777775,74.05555555555556,6.861111111111108C73.44444444444444,7.194444444444441,72.66666666666667,7.361111111111108,71.72222222222221,7.361111111111108C71,7.361111111111108,70.38888888888889,7.2499999999999964,69.77777777777777,7.027777777777775C69.16666666666667,6.805555555555553,68.66666666666667,6.472222222222219,68.22222222222221,6.027777777777775C67.77777777777777,5.58333333333333,67.5,5.08333333333333,67.27777777777777,4.527777777777775C67.05555555555556,3.972222222222219,66.88888888888889,3.3055555555555527,66.88888888888889,2.5833333333333304C66.88888888888889,1.9166666666666634,67,1.2499999999999973,67.22222222222221,0.694444444444442C67.44444444444444,0.13888888888888573,67.77777777777777,-0.36111111111111427,68.16666666666667,-0.805555555555558C68.55555555555556,-1.2500000000000036,69.05555555555556,-1.5833333333333357,69.61111111111111,-1.805555555555559C70.16666666666667,-2.0277777777777803,70.77777777777777,-2.1944444444444464,71.5,-2.1944444444444464C72.27777777777777,-2.1944444444444464,73,-2.0833333333333357,73.55555555555556,-1.805555555555559C74.11111111111111,-1.5277777777777803,74.61111111111111,-1.138888888888891,75,-0.6944444444444473C75.38888888888889,-0.25000000000000266,75.72222222222221,0.3055555555555527,75.88888888888889,0.9166666666666643C76.05555555555556,1.527777777777775,76.16666666666666,2.3055555555555527,76.16666666666666,3.0833333333333304C76.16666666666666,3.0833333333333304,68.27777777777777,3.0833333333333304,68.27777777777777,3.0833333333333304C68.27777777777777,3.0833333333333304,68.27777777777777,3.0833333333333304,68.27777777777777,3.0833333333333304M74.72222222222221,1.9166666666666634C74.55555555555556,0.9166666666666643,74.22222222222221,0.19444444444444198,73.66666666666666,-0.305555555555558C73.11111111111111,-0.805555555555558,72.33333333333333,-1.0277777777777803,71.5,-1.0277777777777803C71.05555555555556,-1.0277777777777803,70.72222222222221,-1.0277777777777803,70.33333333333333,-0.8611111111111143C69.94444444444444,-0.6944444444444473,69.66666666666667,-0.5277777777777803,69.38888888888889,-0.25000000000000266C69.11111111111111,0.027777777777775015,68.83333333333333,0.3055555555555527,68.66666666666667,0.694444444444442C68.5,1.0833333333333304,68.33333333333333,1.4722222222222197,68.27777777777777,1.9166666666666634C68.27777777777777,1.9166666666666634,74.72222222222221,1.9166666666666634,74.72222222222221,1.9166666666666634C74.72222222222221,1.9166666666666634,74.72222222222221,1.9166666666666634,74.72222222222221,1.9166666666666634M86.44444444444444,-0.6944444444444473C85.94444444444444,-0.9166666666666696,85.38888888888889,-1.0277777777777803,84.72222222222221,-1.0277777777777803C84.16666666666666,-1.0277777777777803,83.72222222222221,-0.9166666666666696,83.27777777777777,-0.6944444444444473C82.83333333333333,-0.472222222222225,82.44444444444444,-0.13888888888889195,82.16666666666666,0.24999999999999734C81.88888888888889,0.6388888888888857,81.6111111111111,1.027777777777775,81.44444444444444,1.527777777777775C81.27777777777777,2.027777777777775,81.22222222222221,2.5833333333333304,81.22222222222221,3.0833333333333304C81.22222222222221,3.0833333333333304,81.22222222222221,5.97222222222222,81.22222222222221,5.97222222222222C81.22222222222221,5.97222222222222,83.27777777777777,5.97222222222222,83.27777777777777,5.97222222222222C83.27777777777777,5.97222222222222,83.27777777777777,7.138888888888886,83.27777777777777,7.138888888888886C83.27777777777777,7.138888888888886,77.83333333333333,7.138888888888886,77.83333333333333,7.138888888888886C77.83333333333333,7.138888888888886,77.83333333333333,5.97222222222222,77.83333333333333,5.97222222222222C77.83333333333333,5.97222222222222,79.88888888888889,5.97222222222222,79.88888888888889,5.97222222222222C79.88888888888889,5.97222222222222,79.88888888888889,-0.805555555555558,79.88888888888889,-0.805555555555558C79.88888888888889,-0.805555555555558,77.83333333333333,-0.805555555555558,77.83333333333333,-0.805555555555558C77.83333333333333,-0.805555555555558,77.83333333333333,-1.972222222222225,77.83333333333333,-1.972222222222225C77.83333333333333,-1.972222222222225,81.22222222222221,-1.972222222222225,81.22222222222221,-1.972222222222225C81.22222222222221,-1.972222222222225,81.22222222222221,0.3055555555555527,81.22222222222221,0.3055555555555527C81.83333333333333,-1.3611111111111143,83,-2.1944444444444464,84.72222222222221,-2.1944444444444464C85.16666666666666,-2.1944444444444464,85.6111111111111,-2.138888888888891,85.94444444444444,-2.0833333333333357C86.27777777777777,-2.0277777777777803,86.6111111111111,-1.9166666666666696,86.88888888888889,-1.7500000000000036C86.88888888888889,-1.7500000000000036,86.44444444444444,-0.6944444444444473,86.44444444444444,-0.6944444444444473M97.83333333333333,3.027777777777775C97.83333333333333,3.027777777777775,88.72222222222221,3.027777777777775,88.72222222222221,3.027777777777775C88.72222222222221,3.027777777777775,88.72222222222221,1.9166666666666634,88.72222222222221,1.9166666666666634C88.72222222222221,1.9166666666666634,97.83333333333333,1.9166666666666634,97.83333333333333,1.9166666666666634C97.83333333333333,1.9166666666666634,97.83333333333333,3.027777777777775,97.83333333333333,3.027777777777775C97.83333333333333,3.027777777777775,97.83333333333333,3.027777777777775,97.83333333333333,3.027777777777775M105.05555555555556,-3.805555555555559C105.05555555555556,-3.805555555555559,103.27777777777779,-3.805555555555559,103.27777777777779,-3.805555555555559C103.27777777777779,-3.805555555555559,103.27777777777779,-5.583333333333336,103.27777777777779,-5.583333333333336C103.27777777777779,-5.583333333333336,105.05555555555556,-5.583333333333336,105.05555555555556,-5.583333333333336C105.05555555555556,-5.583333333333336,105.05555555555556,-3.805555555555559,105.05555555555556,-3.805555555555559C105.05555555555556,-3.805555555555559,105.05555555555556,-3.805555555555559,105.05555555555556,-3.805555555555559M106.88888888888889,7.138888888888886C106.88888888888889,7.138888888888886,101.44444444444444,7.138888888888886,101.44444444444444,7.138888888888886C101.44444444444444,7.138888888888886,101.44444444444444,5.97222222222222,101.44444444444444,5.97222222222222C101.44444444444444,5.97222222222222,103.5,5.97222222222222,103.5,5.97222222222222C103.5,5.97222222222222,103.5,-0.805555555555558,103.5,-0.805555555555558C103.5,-0.805555555555558,101.44444444444444,-0.805555555555558,101.44444444444444,-0.805555555555558C101.44444444444444,-0.805555555555558,101.44444444444444,-1.972222222222225,101.44444444444444,-1.972222222222225C101.44444444444444,-1.972222222222225,104.83333333333334,-1.972222222222225,104.83333333333334,-1.972222222222225C104.83333333333334,-1.972222222222225,104.83333333333334,5.97222222222222,104.83333333333334,5.97222222222222C104.83333333333334,5.97222222222222,106.88888888888889,5.97222222222222,106.88888888888889,5.97222222222222C106.88888888888889,5.97222222222222,106.88888888888889,7.138888888888886,106.88888888888889,7.138888888888886C106.88888888888889,7.138888888888886,106.88888888888889,7.138888888888886,106.88888888888889,7.138888888888886M119.83333333333333,2.6388888888888857C119.83333333333333,3.361111111111108,119.72222222222223,3.972222222222219,119.5,4.527777777777775C119.27777777777777,5.08333333333333,119,5.638888888888886,118.55555555555556,6.027777777777775C118.11111111111111,6.416666666666663,117.61111111111111,6.805555555555553,117,7.027777777777775C116.38888888888889,7.2499999999999964,115.77777777777777,7.361111111111108,115.05555555555556,7.361111111111108C114.33333333333333,7.361111111111108,113.72222222222223,7.2499999999999964,113.11111111111111,7.027777777777775C112.5,6.805555555555553,112.05555555555556,6.416666666666663,111.61111111111111,6.027777777777775C111.16666666666667,5.638888888888886,110.88888888888889,5.08333333333333,110.66666666666667,4.527777777777775C110.44444444444444,3.972222222222219,110.27777777777777,3.361111111111108,110.27777777777777,2.6388888888888857C110.27777777777777,1.9722222222222197,110.44444444444444,1.3055555555555527,110.66666666666667,0.694444444444442C110.88888888888889,0.08333333333333037,111.16666666666667,-0.4166666666666696,111.61111111111111,-0.8611111111111143C112.05555555555556,-1.305555555555559,112.5,-1.5833333333333357,113.11111111111111,-1.805555555555559C113.72222222222223,-2.0277777777777803,114.33333333333333,-2.1944444444444464,115.05555555555556,-2.1944444444444464C115.77777777777777,-2.1944444444444464,116.38888888888889,-2.0277777777777803,117,-1.805555555555559C117.61111111111111,-1.5833333333333357,118.11111111111111,-1.305555555555559,118.55555555555556,-0.8611111111111143C119,-0.4166666666666696,119.27777777777777,0.08333333333333037,119.5,0.694444444444442C119.72222222222223,1.3055555555555527,119.83333333333333,1.9722222222222197,119.83333333333333,2.6388888888888857C119.83333333333333,2.6388888888888857,119.83333333333333,2.6388888888888857,119.83333333333333,2.6388888888888857M118.5,2.6388888888888857C118.5,2.1388888888888857,118.44444444444444,1.6388888888888857,118.27777777777777,1.194444444444442C118.11111111111111,0.7499999999999973,117.88888888888889,0.36111111111110805,117.61111111111111,0.027777777777775015C117.33333333333333,-0.305555555555558,116.94444444444444,-0.5833333333333357,116.5,-0.7500000000000027C116.05555555555556,-0.9166666666666696,115.61111111111111,-1.0277777777777803,115.05555555555556,-1.0277777777777803C114.5,-1.0277777777777803,114.05555555555556,-0.9166666666666696,113.61111111111111,-0.7500000000000027C113.16666666666667,-0.5833333333333357,112.83333333333333,-0.305555555555558,112.55555555555556,0.027777777777775015C112.27777777777777,0.36111111111110805,112.05555555555556,0.7499999999999973,111.88888888888889,1.194444444444442C111.72222222222223,1.6388888888888857,111.66666666666667,2.1388888888888857,111.66666666666667,2.6388888888888857C111.66666666666667,3.1388888888888857,111.72222222222223,3.6388888888888857,111.88888888888889,4.08333333333333C112.05555555555556,4.527777777777775,112.27777777777777,4.861111111111108,112.55555555555556,5.194444444444441C112.83333333333333,5.527777777777775,113.16666666666667,5.805555555555553,113.61111111111111,5.97222222222222C114.05555555555556,6.138888888888886,114.5,6.194444444444441,115.05555555555556,6.194444444444441C115.61111111111111,6.194444444444441,116.05555555555556,6.138888888888886,116.5,5.97222222222222C116.94444444444444,5.805555555555553,117.33333333333333,5.527777777777775,117.61111111111111,5.194444444444441C117.88888888888889,4.861111111111108,118.11111111111111,4.527777777777775,118.27777777777777,4.08333333333333C118.44444444444444,3.6388888888888857,118.5,3.1388888888888857,118.5,2.6388888888888857C118.5,2.6388888888888857,118.5,2.6388888888888857,118.5,2.6388888888888857"></path>
</g>
</g>
        </g></svg>