<svg xmlns="http://www.w3.org/2000/svg" viewBox="40 36.21820831298828 100 73.06525421142578"><g>
            <g>
    
    <g>
    <rect fill="transparent" transform="matrix(0.4156358238495794 0 0 0.4156358238495794 69 36.21820880752103)" x="0.5488634705543518" y="0" width="99.93891143798828" height="100" stroke="none" vector-effect="non-scaling-stroke"></rect>
    <g transform="matrix(0.4156358238495794 0 0 0.4156358238495794 69 36.21820880752103)">
            <g>
    <rect fill="transparent" transform="matrix(1 0 0 1 0 0)" x="0.5488635897636414" y="0" width="99.93891143798828" height="100" stroke="none" vector-effect="non-scaling-stroke"></rect>
    <g transform="matrix(1 0 0 1 0 0)">
    <defs>
    <linearGradient x1="0" y1="0" x2="0" y2="1" id="gradient23" gradientTransform="rotate(-180 .5 .5)">
        <stop offset="0" stop-color="#41C79C" stop-opacity="1"></stop><stop offset="1" stop-color="#41C79C" stop-opacity="1"></stop>
    </linearGradient>
    
</defs>
    <path fill="url(#gradient23)" d="M91.35 22.5L91.05 21.25Q89.85 17 86.65 13.85 83.5 10.7 79.2 9.4L78 9.1Q74.5 8.1 72.2 5.75L71.25 4.85Q66.35 0 59.35 0 57.3 0 55.1 0.5L53.9 0.8Q50.55 1.7 47.1 0.8L45.9 0.5Q43.7 0 41.7 0 34.65 0 29.8 4.85L28.85 5.75Q26.5 8.1 23 9.1L21.8 9.4Q17.5 10.7 14.35 13.85 11.2 17 10 21.25L9.65 22.5Q8.65 25.85 6.3 28.35L5.45 29.2Q2.35 32.4 1.15 36.75 0 41.05 1.05 45.35L1.4 46.65Q2.25 49.9 1.4 53.35L1.05 54.55Q0 58.85 1.15 63.2 2.35 67.6 5.45 70.75L6.3 71.65Q8.7 74.15 9.65 77.45L10 78.65Q11.2 82.95 14.35 86.1 17.6 89.3 21.8 90.5L23 90.85Q26.35 91.75 28.85 94.2L29.8 95.1Q34.8 100 41.7 100 43.85 100 45.9 99.4L47.1 99.1Q50.55 98.2 53.9 99.1L55.1 99.4Q57.2 100 59.35 100 66.25 100 71.25 95.1L72.2 94.2Q74.7 91.75 78 90.85L79.2 90.5Q83.5 89.3 86.65 86.1 89.85 82.95 91.05 78.65L91.35 77.45Q92.3 74.15 94.7 71.65L95.6 70.75Q98.7 67.6 99.9 63.2 101.05 58.85 99.95 54.55L99.65 53.35Q98.75 49.9 99.65 46.65L99.95 45.35Q101.05 41.05 99.9 36.75 98.7 32.4 95.6 29.2L94.7 28.35Q92.35 25.85 91.35 22.5M87.6 22.25L88 23.45Q89.2 27.7 92.25 30.75L93.1 31.7Q95.5 34.2 96.45 37.65 97.4 41.1 96.55 44.55L96.2 45.75Q95.15 50 96.2 54.2L96.55 55.4Q97.4 58.85 96.45 62.3 95.5 65.75 93.1 68.25L92.25 69.15Q89.15 72.3 88 76.5L87.6 77.7Q86.65 81.1 84.15 83.65 81.6 86.2 78.25 87.15L77.05 87.45Q72.8 88.6 69.7 91.7L68.8 92.6Q64.8 96.45 59.35 96.45 57.5 96.45 56 96L54.7 95.7Q52.5 95.15 50.55 95.15 48.5 95.15 46.3 95.7L45.05 96Q43.5 96.45 41.7 96.45 36.25 96.45 32.2 92.6L31.3 91.7Q28.2 88.6 23.95 87.45L22.75 87.15Q19.4 86.2 16.9 83.65 14.35 81.1 13.4 77.7L13 76.5Q11.9 72.3 8.8 69.15L7.9 68.25Q5.5 65.75 4.55 62.3 3.65 58.85 4.5 55.4L4.8 54.2Q5.85 50 4.8 45.75L4.5 44.55Q3.65 41.1 4.55 37.65 5.5 34.2 7.9 31.7L8.8 30.75Q11.8 27.7 13 23.45L13.4 22.25Q14.35 18.85 16.9 16.3 19.4 13.8 22.75 12.85L23.95 12.45Q28.2 11.3 31.3 8.25L32.2 7.4Q36.2 3.55 41.7 3.55 43.45 3.55 45.05 3.9L46.3 4.2Q50.55 5.3 54.7 4.2L56 3.9Q57.65 3.55 59.35 3.55 64.9 3.55 68.8 7.4L69.7 8.25Q72.8 11.3 77.05 12.45L78.25 12.85Q81.6 13.8 84.15 16.3 86.65 18.85 87.6 22.25Z"></path>
</g>
</g><g>
    <rect fill="transparent" transform="matrix(1 0 0 1 0 0)" x="16.75" y="75.8499984741211" width="67.6500015258789" height="0.9500045776367188" stroke="none" vector-effect="non-scaling-stroke"></rect>
    <g transform="matrix(1 0 0 1 0 0)">
    <defs>
    <linearGradient x1="0" y1="0" x2="0" y2="1" id="gradient24" gradientTransform="rotate(-180 .5 .5)">
        <stop offset="0" stop-color="#188B5A" stop-opacity="1"></stop><stop offset="1" stop-color="#188B5A" stop-opacity="1"></stop>
    </linearGradient>
    
</defs>
    <path fill="url(#gradient24)" d="M65.65 76.5Q69.2 76.8 73.7 76.8 80.9 76.8 84.4 76.2 78.75 75.85 73.7 75.85 70.55 75.85 66.5 76.05L63 76.2 65.65 76.5M19.35 76.5Q22.9 76.8 27.45 76.8 34.65 76.8 38.1 76.2 32.45 75.85 27.45 75.85 24.3 75.85 20.25 76.05L16.75 76.2 19.35 76.5Z"></path>
</g>
</g><g>
    <rect fill="transparent" transform="matrix(1 0 0 1 0 0)" x="43.900001525878906" y="69.5999984741211" width="13.199996948242188" height="12.550003051757812" stroke="none" vector-effect="non-scaling-stroke"></rect>
    <g transform="matrix(1 0 0 1 0 0)">
    <defs>
    <linearGradient x1="0" y1="0" x2="0" y2="1" id="gradient25" gradientTransform="rotate(-180 .5 .5)">
        <stop offset="0" stop-color="#FFB63A" stop-opacity="1"></stop><stop offset="1" stop-color="#FFB63A" stop-opacity="1"></stop>
    </linearGradient>
    
</defs>
    <path fill="url(#gradient25)" d="M50.55 69.6L48.45 73.7 43.9 74.4 47.2 77.65 46.45 82.15 50.55 80 54.6 82.15 53.85 77.65 57.1 74.4 52.55 73.7 50.55 69.6Z"></path>
</g>
</g>
        </g>
</g>
</g><g>
    <rect fill="transparent" transform="matrix(0.8364312149043425 0 0 0.8364312149043425 37.58364320125873 99.362453739174)" x="2.8888888359069824" y="-6.75" width="119.55555725097656" height="18.61111068725586" stroke="none" vector-effect="non-scaling-stroke"></rect>
    <g transform="matrix(0.8364312149043425 0 0 0.8364312149043425 37.58364320125873 99.362453739174)">
    
    
    <path fill="#000000" fill-opacity="1" d="M4.444444444444443,4.30555555555555C4.444444444444443,4.916666666666661,4.666666666666664,5.416666666666661,5.111111111111109,5.805555555555549C5.555555555555554,6.194444444444438,6.055555555555554,6.472222222222216,6.611111111111109,6.472222222222216C7.166666666666664,6.472222222222216,7.611111111111109,6.194444444444438,8.055555555555554,5.805555555555549C8.444444444444443,5.416666666666661,8.666666666666664,4.916666666666661,8.666666666666664,4.30555555555555C8.666666666666664,4.30555555555555,8.666666666666664,4.194444444444438,8.666666666666664,4.194444444444438C8.666666666666664,4.194444444444438,10.22222222222222,3.472222222222216,10.22222222222222,3.472222222222216C10.22222222222222,3.472222222222216,10.22222222222222,4.361111111111105,10.22222222222222,4.361111111111105C10.22222222222222,5.249999999999994,9.833333333333332,6.138888888888882,9.055555555555554,6.972222222222216C8.388888888888886,7.694444444444438,7.555555555555554,8.027777777777771,6.555555555555554,8.027777777777771C5.555555555555554,8.027777777777771,4.666666666666664,7.694444444444438,3.944444444444443,6.972222222222216C3.2222222222222205,6.249999999999994,2.8888888888888875,5.361111111111105,2.8888888888888875,4.361111111111105C2.8888888888888875,4.361111111111105,2.8888888888888875,0.7499999999999938,2.8888888888888875,0.7499999999999938C2.8888888888888875,-0.25000000000000533,3.2222222222222205,-1.1388888888888946,3.944444444444443,-1.861111111111116C4.666666666666664,-2.5833333333333393,5.555555555555554,-2.916666666666673,6.555555555555554,-2.916666666666673C7.611111111111109,-2.916666666666673,8.444444444444443,-2.5833333333333393,9.166666666666664,-1.861111111111116C9.888888888888888,-1.1388888888888946,10.22222222222222,-0.25000000000000533,10.22222222222222,0.7499999999999938C10.22222222222222,0.7499999999999938,10.22222222222222,0.8611111111111054,10.22222222222222,0.8611111111111054C10.22222222222222,0.8611111111111054,8.666666666666664,1.5833333333333277,8.666666666666664,1.5833333333333277C8.666666666666664,1.5833333333333277,8.666666666666664,0.80555555555555,8.666666666666664,0.80555555555555C8.666666666666664,0.19444444444443842,8.444444444444443,-0.3055555555555607,8.055555555555554,-0.69444444444445C7.611111111111109,-1.0833333333333393,7.111111111111109,-1.3055555555555607,6.555555555555554,-1.3055555555555607C5.944444444444443,-1.3055555555555607,5.499999999999998,-1.0833333333333393,5.055555555555554,-0.69444444444445C4.611111111111109,-0.3055555555555607,4.444444444444443,0.19444444444443842,4.444444444444443,0.7499999999999938C4.444444444444443,0.7499999999999938,4.444444444444443,0.80555555555555,4.444444444444443,0.80555555555555C4.444444444444443,0.80555555555555,4.444444444444443,4.30555555555555,4.444444444444443,4.30555555555555C4.444444444444443,4.30555555555555,4.444444444444443,4.30555555555555,4.444444444444443,4.30555555555555M15.666666666666666,4.30555555555555C15.666666666666666,4.916666666666661,15.888888888888888,5.416666666666661,16.333333333333332,5.805555555555549C16.77777777777778,6.194444444444438,17.27777777777778,6.472222222222216,17.833333333333332,6.472222222222216C18.388888888888886,6.472222222222216,18.833333333333332,6.194444444444438,19.27777777777778,5.805555555555549C19.666666666666664,5.416666666666661,19.888888888888886,4.916666666666661,19.888888888888886,4.30555555555555C19.888888888888886,4.30555555555555,19.888888888888886,0.80555555555555,19.888888888888886,0.80555555555555C19.888888888888886,0.19444444444443842,19.666666666666664,-0.3055555555555607,19.27777777777778,-0.69444444444445C18.833333333333332,-1.0833333333333393,18.333333333333332,-1.3055555555555607,17.72222222222222,-1.3055555555555607C17.166666666666664,-1.3055555555555607,16.666666666666664,-1.0833333333333393,16.27777777777778,-0.69444444444445C15.888888888888888,-0.3055555555555607,15.666666666666666,0.19444444444443842,15.666666666666666,0.7499999999999938C15.666666666666666,0.7499999999999938,15.666666666666666,0.80555555555555,15.666666666666666,0.80555555555555C15.666666666666666,0.80555555555555,15.666666666666666,4.30555555555555,15.666666666666666,4.30555555555555C15.666666666666666,4.30555555555555,15.666666666666666,4.30555555555555,15.666666666666666,4.30555555555555M14.11111111111111,0.7499999999999938C14.11111111111111,-0.25000000000000533,14.444444444444443,-1.1388888888888946,15.166666666666666,-1.861111111111116C15.888888888888888,-2.5833333333333393,16.77777777777778,-2.916666666666673,17.77777777777778,-2.916666666666673C18.77777777777778,-2.916666666666673,19.666666666666664,-2.5833333333333393,20.388888888888886,-1.861111111111116C21.11111111111111,-1.1388888888888946,21.444444444444443,-0.25000000000000533,21.444444444444443,0.7499999999999938C21.444444444444443,0.7499999999999938,21.444444444444443,4.361111111111105,21.444444444444443,4.361111111111105C21.444444444444443,5.361111111111105,21.11111111111111,6.249999999999994,20.388888888888886,6.972222222222216C19.666666666666664,7.694444444444438,18.77777777777778,8.027777777777771,17.77777777777778,8.027777777777771C16.77777777777778,8.027777777777771,15.888888888888888,7.694444444444438,15.166666666666666,6.972222222222216C14.444444444444443,6.249999999999994,14.11111111111111,5.361111111111105,14.11111111111111,4.361111111111105C14.11111111111111,4.361111111111105,14.11111111111111,0.7499999999999938,14.11111111111111,0.7499999999999938C14.11111111111111,0.7499999999999938,14.11111111111111,0.7499999999999938,14.11111111111111,0.7499999999999938M24.444444444444443,8.027777777777771C24.444444444444443,8.027777777777771,24.444444444444443,-0.25000000000000533,24.444444444444443,-0.25000000000000533C24.444444444444443,-0.9722222222222285,24.722222222222218,-1.6388888888888946,25.222222222222218,-2.1388888888888946C25.722222222222218,-2.6388888888888946,26.388888888888886,-2.916666666666673,27.111111111111107,-2.916666666666673C27.888888888888886,-2.916666666666673,28.499999999999996,-2.6388888888888946,28.999999999999996,-2.1388888888888946C29.499999999999996,-2.6388888888888946,30.166666666666664,-2.916666666666673,30.888888888888886,-2.916666666666673C31.666666666666664,-2.916666666666673,32.27777777777777,-2.6388888888888946,32.77777777777777,-2.1388888888888946C33.27777777777777,-1.6388888888888946,33.55555555555555,-1.027777777777784,33.55555555555555,-0.25000000000000533C33.55555555555555,-0.25000000000000533,33.55555555555555,7.3611111111111045,33.55555555555555,7.3611111111111045C33.55555555555555,7.3611111111111045,31.999999999999996,8.027777777777771,31.999999999999996,8.027777777777771C31.999999999999996,8.027777777777771,31.999999999999996,-0.19444444444444997,31.999999999999996,-0.19444444444444997C31.999999999999996,-0.5277777777777839,31.888888888888886,-0.8055555555555607,31.666666666666664,-1.027777777777784C31.444444444444443,-1.2500000000000053,31.166666666666664,-1.361111111111116,30.888888888888886,-1.361111111111116C30.55555555555555,-1.361111111111116,30.33333333333333,-1.2500000000000053,30.111111111111107,-1.027777777777784C29.888888888888886,-0.8055555555555607,29.777777777777775,-0.5277777777777839,29.777777777777775,-0.19444444444444997C29.777777777777775,-0.19444444444444997,29.777777777777775,-0.19444444444444997,29.777777777777775,-0.19444444444444997C29.777777777777775,-0.19444444444444997,29.777777777777775,7.3611111111111045,29.777777777777775,7.3611111111111045C29.777777777777775,7.3611111111111045,28.222222222222218,8.027777777777771,28.222222222222218,8.027777777777771C28.222222222222218,8.027777777777771,28.222222222222218,-0.19444444444444997,28.222222222222218,-0.19444444444444997C28.222222222222218,-0.5277777777777839,28.111111111111107,-0.8055555555555607,27.888888888888886,-1.027777777777784C27.666666666666664,-1.2500000000000053,27.444444444444443,-1.361111111111116,27.166666666666664,-1.361111111111116C26.888888888888886,-1.361111111111116,26.611111111111107,-1.2500000000000053,26.388888888888886,-1.027777777777784C26.166666666666664,-0.8055555555555607,26.055555555555554,-0.5277777777777839,26.055555555555554,-0.19444444444444997C26.055555555555554,-0.19444444444444997,25.999999999999996,7.3611111111111045,25.999999999999996,7.3611111111111045C25.999999999999996,7.3611111111111045,24.444444444444443,8.027777777777771,24.444444444444443,8.027777777777771M38.11111111111111,4.30555555555555C38.11111111111111,4.916666666666661,38.33333333333333,5.416666666666661,38.77777777777777,5.805555555555549C39.222222222222214,6.194444444444438,39.722222222222214,6.472222222222216,40.27777777777777,6.472222222222216C40.83333333333333,6.472222222222216,41.27777777777777,6.194444444444438,41.722222222222214,5.805555555555549C42.11111111111111,5.416666666666661,42.33333333333333,4.916666666666661,42.33333333333333,4.30555555555555C42.33333333333333,4.30555555555555,42.33333333333333,0.80555555555555,42.33333333333333,0.80555555555555C42.33333333333333,0.19444444444443842,42.11111111111111,-0.3055555555555607,41.722222222222214,-0.69444444444445C41.27777777777777,-1.0833333333333393,40.77777777777777,-1.3055555555555607,40.166666666666664,-1.3055555555555607C39.61111111111111,-1.3055555555555607,39.11111111111111,-1.0833333333333393,38.722222222222214,-0.69444444444445C38.33333333333333,-0.3055555555555607,38.11111111111111,0.19444444444443842,38.11111111111111,0.7499999999999938C38.11111111111111,0.7499999999999938,38.11111111111111,0.80555555555555,38.11111111111111,0.80555555555555C38.11111111111111,0.80555555555555,38.11111111111111,4.30555555555555,38.11111111111111,4.30555555555555C38.11111111111111,4.30555555555555,38.11111111111111,4.30555555555555,38.11111111111111,4.30555555555555M36.55555555555555,11.861111111111104C36.55555555555555,11.861111111111104,36.55555555555555,0.7499999999999938,36.55555555555555,0.7499999999999938C36.55555555555555,-0.25000000000000533,36.888888888888886,-1.1388888888888946,37.61111111111111,-1.861111111111116C38.33333333333333,-2.5833333333333393,39.222222222222214,-2.916666666666673,40.222222222222214,-2.916666666666673C41.222222222222214,-2.916666666666673,42.11111111111111,-2.5833333333333393,42.83333333333333,-1.861111111111116C43.55555555555555,-1.1388888888888946,43.888888888888886,-0.25000000000000533,43.888888888888886,0.7499999999999938C43.888888888888886,0.7499999999999938,43.888888888888886,4.361111111111105,43.888888888888886,4.361111111111105C43.888888888888886,5.361111111111105,43.55555555555555,6.249999999999994,42.83333333333333,6.972222222222216C42.11111111111111,7.694444444444438,41.222222222222214,8.027777777777771,40.222222222222214,8.027777777777771C39.44444444444444,8.027777777777771,38.722222222222214,7.805555555555549,38.11111111111111,7.3611111111111045C38.11111111111111,7.3611111111111045,38.11111111111111,11.138888888888882,38.11111111111111,11.138888888888882C38.11111111111111,11.138888888888882,36.55555555555555,11.861111111111104,36.55555555555555,11.861111111111104M49.33333333333333,4.30555555555555C49.33333333333333,4.916666666666661,49.55555555555555,5.416666666666661,49.99999999999999,5.805555555555549C50.44444444444444,6.194444444444438,50.94444444444444,6.472222222222216,51.49999999999999,6.472222222222216C52.05555555555555,6.472222222222216,52.49999999999999,6.194444444444438,52.94444444444444,5.805555555555549C53.33333333333333,5.416666666666661,53.55555555555555,4.916666666666661,53.55555555555555,4.30555555555555C53.55555555555555,4.30555555555555,53.55555555555555,0.80555555555555,53.55555555555555,0.80555555555555C53.55555555555555,0.19444444444443842,53.33333333333333,-0.3055555555555607,52.94444444444444,-0.69444444444445C52.49999999999999,-1.0833333333333393,51.99999999999999,-1.3055555555555607,51.388888888888886,-1.3055555555555607C50.83333333333333,-1.3055555555555607,50.33333333333333,-1.0833333333333393,49.94444444444444,-0.69444444444445C49.55555555555555,-0.3055555555555607,49.33333333333333,0.19444444444443842,49.33333333333333,0.7499999999999938C49.33333333333333,0.7499999999999938,49.33333333333333,0.80555555555555,49.33333333333333,0.80555555555555C49.33333333333333,0.80555555555555,49.33333333333333,4.30555555555555,49.33333333333333,4.30555555555555C49.33333333333333,4.30555555555555,49.33333333333333,4.30555555555555,49.33333333333333,4.30555555555555M47.77777777777777,0.7499999999999938C47.77777777777777,-0.25000000000000533,48.11111111111111,-1.1388888888888946,48.83333333333333,-1.861111111111116C49.55555555555555,-2.5833333333333393,50.44444444444444,-2.916666666666673,51.44444444444444,-2.916666666666673C52.44444444444444,-2.916666666666673,53.33333333333333,-2.5833333333333393,54.05555555555555,-1.861111111111116C54.77777777777777,-1.1388888888888946,55.11111111111111,-0.25000000000000533,55.11111111111111,0.7499999999999938C55.11111111111111,0.7499999999999938,55.11111111111111,4.361111111111105,55.11111111111111,4.361111111111105C55.11111111111111,5.361111111111105,54.77777777777777,6.249999999999994,54.05555555555555,6.972222222222216C53.33333333333333,7.694444444444438,52.44444444444444,8.027777777777771,51.44444444444444,8.027777777777771C50.44444444444444,8.027777777777771,49.55555555555555,7.694444444444438,48.83333333333333,6.972222222222216C48.11111111111111,6.249999999999994,47.77777777777777,5.361111111111105,47.77777777777777,4.361111111111105C47.77777777777777,4.361111111111105,47.77777777777777,0.7499999999999938,47.77777777777777,0.7499999999999938C47.77777777777777,0.7499999999999938,47.77777777777777,0.7499999999999938,47.77777777777777,0.7499999999999938M62.722222222222214,6.472222222222216C63.27777777777777,6.472222222222216,63.77777777777777,6.249999999999994,64.16666666666666,5.861111111111105C64.55555555555554,5.472222222222216,64.72222222222221,5.0277777777777715,64.72222222222221,4.5277777777777715C64.72222222222221,4.083333333333327,64.55555555555554,3.638888888888883,64.16666666666666,3.249999999999994C63.77777777777777,2.8611111111111054,63.27777777777777,2.6944444444444384,62.61111111111111,2.638888888888883C61.77777777777777,2.5833333333333277,61.16666666666666,2.3611111111111054,60.66666666666666,1.9166666666666607C60.222222222222214,1.472222222222216,59.944444444444436,0.8611111111111054,59.83333333333333,0.027777777777771462C59.83333333333333,0.027777777777771462,59.83333333333333,-0.1388888888888946,59.83333333333333,-0.1388888888888946C59.888888888888886,-0.8611111111111178,60.16666666666666,-1.4722222222222285,60.722222222222214,-2.027777777777784C61.27777777777777,-2.5833333333333393,61.944444444444436,-2.916666666666673,62.722222222222214,-2.916666666666673C63.55555555555555,-2.916666666666673,64.27777777777777,-2.5833333333333393,64.77777777777777,-2.027777777777784C65.1111111111111,-1.6388888888888946,65.38888888888889,-1.1388888888888946,65.55555555555554,-0.47222222222222854C65.55555555555554,-0.47222222222222854,64.1111111111111,0.13888888888888307,64.1111111111111,0.13888888888888307C63.99999999999999,-0.3055555555555607,63.888888888888886,-0.5833333333333393,63.66666666666666,-0.8611111111111178C63.444444444444436,-1.1388888888888946,63.11111111111111,-1.3055555555555607,62.722222222222214,-1.3055555555555607C62.388888888888886,-1.3055555555555607,62.05555555555555,-1.1388888888888946,61.77777777777777,-0.8611111111111178C61.55555555555555,-0.6388888888888946,61.388888888888886,-0.3611111111111178,61.388888888888886,-0.027777777777783896C61.388888888888886,-0.027777777777783896,61.388888888888886,0.027777777777771462,61.388888888888886,0.027777777777771462C61.388888888888886,0.3611111111111054,61.55555555555555,0.5833333333333277,61.77777777777777,0.80555555555555C61.99999999999999,1.0277777777777715,62.33333333333333,1.138888888888883,62.722222222222214,1.1944444444444384C63.83333333333333,1.30555555555555,64.72222222222221,1.6944444444444384,65.33333333333333,2.249999999999994C66,2.8611111111111054,66.27777777777777,3.638888888888883,66.27777777777777,4.583333333333327C66.27777777777777,4.583333333333327,66.27777777777777,4.583333333333327,66.27777777777777,4.583333333333327C66.27777777777777,5.472222222222216,65.94444444444444,6.305555555555549,65.33333333333333,6.972222222222216C64.66666666666666,7.694444444444438,63.77777777777777,8.027777777777771,62.722222222222214,8.027777777777771C61.722222222222214,8.027777777777771,60.888888888888886,7.694444444444438,60.222222222222214,6.972222222222216C59.49999999999999,6.194444444444438,59.11111111111111,5.30555555555555,59.05555555555555,4.361111111111105C59.05555555555555,4.361111111111105,59.05555555555555,4.249999999999994,59.05555555555555,4.249999999999994C59.05555555555555,4.249999999999994,60.61111111111111,3.583333333333327,60.61111111111111,3.583333333333327C60.61111111111111,3.583333333333327,60.61111111111111,4.30555555555555,60.61111111111111,4.30555555555555C60.61111111111111,4.916666666666661,60.83333333333333,5.416666666666661,61.222222222222214,5.805555555555549C61.66666666666666,6.194444444444438,62.11111111111111,6.472222222222216,62.722222222222214,6.472222222222216C62.722222222222214,6.472222222222216,62.722222222222214,6.472222222222216,62.722222222222214,6.472222222222216M73.94444444444444,6.472222222222216C74.5,6.472222222222216,74.94444444444444,6.194444444444438,75.38888888888889,5.805555555555549C75.77777777777777,5.416666666666661,76,4.916666666666661,76,4.30555555555555C76,4.30555555555555,76,4.194444444444438,76,4.194444444444438C76,4.194444444444438,77.55555555555554,3.472222222222216,77.55555555555554,3.472222222222216C77.55555555555554,3.472222222222216,77.55555555555554,4.361111111111105,77.55555555555554,4.361111111111105C77.55555555555554,5.249999999999994,77.16666666666666,6.138888888888882,76.38888888888889,6.972222222222216C75.72222222222221,7.694444444444438,74.88888888888889,8.027777777777771,73.88888888888889,8.027777777777771C72.88888888888889,8.027777777777771,72,7.694444444444438,71.27777777777777,6.972222222222216C70.55555555555554,6.249999999999994,70.22222222222221,5.361111111111105,70.22222222222221,4.361111111111105C70.22222222222221,4.361111111111105,70.22222222222221,0.7499999999999938,70.22222222222221,0.7499999999999938C70.22222222222221,-0.25000000000000533,70.55555555555554,-1.1388888888888946,71.27777777777777,-1.861111111111116C72,-2.5833333333333393,72.88888888888889,-2.916666666666673,73.88888888888889,-2.916666666666673C74.88888888888889,-2.916666666666673,75.72222222222221,-2.5833333333333393,76.5,-1.861111111111116C77.22222222222221,-1.19444444444445,77.55555555555554,-0.3055555555555607,77.55555555555554,0.7499999999999938C77.55555555555554,0.7499999999999938,77.55555555555554,1.6944444444444384,77.55555555555554,1.6944444444444384C77.55555555555554,1.6944444444444384,71.77777777777777,4.249999999999994,71.77777777777777,4.249999999999994C71.77777777777777,4.861111111111105,72,5.361111111111105,72.38888888888889,5.805555555555549C72.77777777777777,6.249999999999994,73.33333333333333,6.472222222222216,73.94444444444444,6.472222222222216C73.94444444444444,6.472222222222216,73.94444444444444,6.472222222222216,73.94444444444444,6.472222222222216M73.83333333333333,-1.3055555555555607C73.27777777777777,-1.3055555555555607,72.77777777777777,-1.0833333333333393,72.38888888888889,-0.69444444444445C72,-0.3055555555555607,71.77777777777777,0.19444444444443842,71.77777777777777,0.7499999999999938C71.77777777777777,0.7499999999999938,71.77777777777777,0.80555555555555,71.77777777777777,0.80555555555555C71.77777777777777,0.80555555555555,71.77777777777777,2.5277777777777715,71.77777777777777,2.5277777777777715C71.77777777777777,2.5277777777777715,76,0.6388888888888831,76,0.6388888888888831C75.94444444444444,0.08333333333332771,75.77777777777777,-0.3055555555555607,75.38888888888889,-0.69444444444445C74.94444444444444,-1.0833333333333393,74.44444444444444,-1.3055555555555607,73.83333333333333,-1.3055555555555607C73.83333333333333,-1.3055555555555607,73.83333333333333,-1.3055555555555607,73.83333333333333,-1.3055555555555607M81.44444444444444,8.027777777777771C81.44444444444444,8.027777777777771,81.44444444444444,0.7499999999999938,81.44444444444444,0.7499999999999938C81.44444444444444,-0.25000000000000533,81.77777777777777,-1.1388888888888946,82.5,-1.861111111111116C83.22222222222223,-2.5833333333333393,84.11111111111111,-2.916666666666673,85.11111111111111,-2.916666666666673C86.16666666666667,-2.916666666666673,87,-2.5833333333333393,87.72222222222223,-1.861111111111116C88.44444444444444,-1.1388888888888946,88.77777777777777,-0.25000000000000533,88.77777777777777,0.7499999999999938C88.77777777777777,0.7499999999999938,88.77777777777777,0.80555555555555,88.77777777777777,0.80555555555555C88.77777777777777,0.80555555555555,87.22222222222223,1.472222222222216,87.22222222222223,1.472222222222216C87.22222222222223,1.472222222222216,87.22222222222223,0.80555555555555,87.22222222222223,0.80555555555555C87.22222222222223,0.19444444444443842,87,-0.3055555555555607,86.61111111111111,-0.69444444444445C86.16666666666667,-1.0833333333333393,85.66666666666667,-1.3055555555555607,85.11111111111111,-1.3055555555555607C84.5,-1.3055555555555607,84.05555555555556,-1.0833333333333393,83.61111111111111,-0.69444444444445C83.16666666666667,-0.3055555555555607,83,0.19444444444443842,83,0.7499999999999938C83,0.7499999999999938,83,0.80555555555555,83,0.80555555555555C83,0.80555555555555,83,7.3611111111111045,83,7.3611111111111045C83,7.3611111111111045,81.44444444444444,8.027777777777771,81.44444444444444,8.027777777777771M92.77777777777777,-0.1388888888888946C92.77777777777777,-0.1388888888888946,100.6111111111111,-0.1388888888888946,100.6111111111111,-0.1388888888888946C100.6111111111111,-0.1388888888888946,99.88888888888889,1.4166666666666607,99.88888888888889,1.4166666666666607C99.88888888888889,1.4166666666666607,92.05555555555554,1.4166666666666607,92.05555555555554,1.4166666666666607C92.05555555555554,1.4166666666666607,92.77777777777777,-0.1388888888888946,92.77777777777777,-0.1388888888888946M109.66666666666666,4.249999999999994C109.66666666666666,4.249999999999994,111.22222222222221,3.583333333333327,111.22222222222221,3.583333333333327C111.22222222222221,3.583333333333327,111.22222222222221,4.361111111111105,111.22222222222221,4.361111111111105C111.22222222222221,5.361111111111105,110.88888888888889,6.249999999999994,110.16666666666666,6.972222222222216C109.44444444444444,7.694444444444438,108.55555555555556,8.027777777777771,107.55555555555556,8.027777777777771C106.55555555555556,8.027777777777771,105.66666666666667,7.694444444444438,104.94444444444444,6.972222222222216C104.22222222222221,6.249999999999994,103.88888888888889,5.361111111111105,103.88888888888889,4.361111111111105C103.88888888888889,4.361111111111105,103.88888888888889,-2.2500000000000053,103.88888888888889,-2.2500000000000053C103.88888888888889,-2.2500000000000053,105.44444444444444,-2.916666666666673,105.44444444444444,-2.916666666666673C105.44444444444444,-2.916666666666673,105.44444444444444,4.30555555555555,105.44444444444444,4.30555555555555C105.44444444444444,4.916666666666661,105.66666666666667,5.416666666666661,106.05555555555556,5.805555555555549C106.5,6.194444444444438,107,6.472222222222216,107.61111111111111,6.472222222222216C108.16666666666666,6.472222222222216,108.66666666666666,6.249999999999994,109.05555555555556,5.805555555555549C109.44444444444444,5.361111111111105,109.66666666666666,4.80555555555555,109.66666666666666,4.249999999999994C109.66666666666666,4.249999999999994,109.66666666666666,4.249999999999994,109.66666666666666,4.249999999999994M103.38888888888889,-5.416666666666671C103.38888888888889,-5.750000000000005,103.5,-6.083333333333339,103.72222222222221,-6.361111111111116C103.94444444444444,-6.638888888888895,104.33333333333333,-6.750000000000005,104.66666666666667,-6.750000000000005C105,-6.750000000000005,105.33333333333333,-6.638888888888895,105.55555555555556,-6.361111111111116C105.77777777777777,-6.083333333333339,105.88888888888889,-5.750000000000005,105.88888888888889,-5.416666666666671C105.88888888888889,-5.083333333333339,105.77777777777777,-4.805555555555561,105.55555555555556,-4.527777777777784C105.33333333333333,-4.250000000000005,105,-4.138888888888895,104.66666666666667,-4.138888888888895C104.33333333333333,-4.138888888888895,103.94444444444444,-4.250000000000005,103.72222222222221,-4.527777777777784C103.5,-4.805555555555561,103.38888888888889,-5.083333333333339,103.38888888888889,-5.416666666666671C103.38888888888889,-5.416666666666671,103.38888888888889,-5.416666666666671,103.38888888888889,-5.416666666666671M116.66666666666666,4.30555555555555C116.66666666666666,4.916666666666661,116.88888888888889,5.416666666666661,117.33333333333333,5.805555555555549C117.77777777777777,6.194444444444438,118.27777777777777,6.472222222222216,118.83333333333333,6.472222222222216C119.38888888888889,6.472222222222216,119.83333333333333,6.194444444444438,120.27777777777777,5.805555555555549C120.66666666666666,5.416666666666661,120.88888888888889,4.916666666666661,120.88888888888889,4.30555555555555C120.88888888888889,4.30555555555555,120.88888888888889,0.80555555555555,120.88888888888889,0.80555555555555C120.88888888888889,0.19444444444443842,120.66666666666666,-0.3055555555555607,120.27777777777777,-0.69444444444445C119.83333333333333,-1.0833333333333393,119.33333333333333,-1.3055555555555607,118.72222222222221,-1.3055555555555607C118.16666666666666,-1.3055555555555607,117.66666666666666,-1.0833333333333393,117.27777777777777,-0.69444444444445C116.88888888888889,-0.3055555555555607,116.66666666666666,0.19444444444443842,116.66666666666666,0.7499999999999938C116.66666666666666,0.7499999999999938,116.66666666666666,0.80555555555555,116.66666666666666,0.80555555555555C116.66666666666666,0.80555555555555,116.66666666666666,4.30555555555555,116.66666666666666,4.30555555555555C116.66666666666666,4.30555555555555,116.66666666666666,4.30555555555555,116.66666666666666,4.30555555555555M115.1111111111111,0.7499999999999938C115.1111111111111,-0.25000000000000533,115.44444444444443,-1.1388888888888946,116.16666666666666,-1.861111111111116C116.88888888888889,-2.5833333333333393,117.77777777777777,-2.916666666666673,118.77777777777777,-2.916666666666673C119.77777777777777,-2.916666666666673,120.66666666666666,-2.5833333333333393,121.38888888888889,-1.861111111111116C122.1111111111111,-1.1388888888888946,122.44444444444443,-0.25000000000000533,122.44444444444443,0.7499999999999938C122.44444444444443,0.7499999999999938,122.44444444444443,4.361111111111105,122.44444444444443,4.361111111111105C122.44444444444443,5.361111111111105,122.1111111111111,6.249999999999994,121.38888888888889,6.972222222222216C120.66666666666666,7.694444444444438,119.77777777777777,8.027777777777771,118.77777777777777,8.027777777777771C117.77777777777777,8.027777777777771,116.88888888888889,7.694444444444438,116.16666666666666,6.972222222222216C115.44444444444443,6.249999999999994,115.1111111111111,5.361111111111105,115.1111111111111,4.361111111111105C115.1111111111111,4.361111111111105,115.1111111111111,0.7499999999999938,115.1111111111111,0.7499999999999938C115.1111111111111,0.7499999999999938,115.1111111111111,0.7499999999999938,115.1111111111111,0.7499999999999938"></path>
</g>
</g>
        </g></svg>